<svg preserveAspectRatio="none" width="100%" height="100%" overflow="visible" style="display: block;" viewBox="0 0 12 22" fill="none" xmlns="http://www.w3.org/2000/svg">
<path id="Fill 1" fill-rule="evenodd" clip-rule="evenodd" d="M7.46806 22C7.46806 22 7.46797 21.9618 7.46806 21.841C7.4711 18.6026 7.47046 15.3641 7.47082 12.1256C7.47082 12.0786 7.47579 12.0316 7.47892 11.9777H7.65726C8.6513 11.9777 9.64534 11.9777 10.6394 11.9776C10.8348 11.9776 10.8361 11.9777 10.861 11.7852C11.0137 10.6052 11.166 9.42511 11.3182 8.24491C11.3434 8.04908 11.3418 8.04724 11.1468 8.04715C9.97736 8.04706 8.80783 8.04715 7.6384 8.04715H7.47046V7.87994C7.47046 7.13336 7.46632 6.38668 7.47294 5.6401C7.47497 5.40268 7.49254 5.16378 7.52558 4.92876C7.6176 4.27539 8.02655 3.85438 8.67707 3.74957C8.92452 3.70963 9.17767 3.69215 9.42862 3.68874C10.0491 3.68028 10.6699 3.68607 11.2906 3.68571C11.4654 3.68561 11.4656 3.68488 11.4656 3.50608C11.4656 2.76842 11.4656 2.03076 11.4656 1.2931C11.4656 0.951325 11.4651 0.609458 11.466 0.267592C11.4662 0.200415 11.4661 0.144281 11.3733 0.138207C11.1628 0.124496 10.9532 0.098453 10.7427 0.0853857C10.3616 0.0617357 9.98039 0.0381777 9.59886 0.0246503C8.75924 -0.00498121 7.91981 -0.0418826 7.08847 0.138943C5.70471 0.439859 4.64019 1.17218 3.98222 2.44293C3.56517 3.2485 3.39714 4.11904 3.39097 5.02106C3.38453 5.97009 3.38876 6.91913 3.38812 7.86817C3.38803 8.04678 3.38775 8.04706 3.21429 8.04706C2.1978 8.04715 1.18131 8.04945 0.164819 8.0443C0.0329491 8.04365 -0.000363322 8.08359 0.000188818 8.21196C0.00469796 9.41287 0.00478998 10.6139 4.77116e-06 11.8148C-0.000455345 11.9432 0.0322129 11.9813 0.16353 11.9807C1.18904 11.9753 2.21455 11.9799 3.24005 11.9749C3.3618 11.9743 3.39033 12.0124 3.39024 12.1277C3.38766 15.3662 3.38757 18.6047 3.39051 21.8431C3.3906 21.9685 3.39051 21.9996 3.39051 21.9996L7.46806 22Z" fill="var(--fill-0, #FEFEFE)"/>
</svg>
