<svg preserveAspectRatio="none" width="100%" height="100%" overflow="visible" style="display: block;" viewBox="0 0 16 19" fill="none" xmlns="http://www.w3.org/2000/svg">
<path id="Fill 19" fill-rule="evenodd" clip-rule="evenodd" d="M11.1979 3.71205C11.4253 3.69405 11.611 3.68481 11.7496 3.68481C12.6096 3.68481 13.0406 4.21685 13.0406 5.28093V12.3871H9.38407V3.88898L10.746 3.75328L11.1979 3.71205ZM5.51059 16.2941C4.83736 16.2941 4.36404 16.1507 4.0914 15.8655C3.85224 15.6084 3.73329 15.219 3.73329 14.6977V4.40278L7.032 4.09215V14.3876V14.4006H15.443V14.1667H15.444V4.5957C15.444 3.73829 15.0861 3.01382 14.3704 2.42105C13.7474 1.89926 13.0152 1.63886 12.1712 1.63886C11.9806 1.63886 11.5487 1.66735 10.8777 1.72557L10.8433 1.72857C10.5314 1.75606 10.1643 1.7898 9.75168 1.82853L9.38407 1.86277V0H7.032V2.07744L3.74578 2.37857L3.73329 0.235158H1.32998L1.30499 2.60198L0 2.72118V4.72865L1.32998 4.6082L1.30399 14.8584C1.30399 15.6511 1.50891 16.3371 1.91825 16.9149C2.5655 17.8298 3.76278 18.2863 5.51059 18.2863H15.5207V16.2729L5.51059 16.2941Z" fill="var(--fill-0, #4A4C48)"/>
</svg>
