<svg preserveAspectRatio="none" width="100%" height="100%" overflow="visible" style="display: block;" viewBox="0 0 18 16" fill="none" xmlns="http://www.w3.org/2000/svg">
<path id="Fill 1" fill-rule="evenodd" clip-rule="evenodd" d="M5.94346 3.86455C5.27883 3.87128 4.73753 4.4198 4.74899 5.07489C4.7603 5.72062 5.33166 6.2785 5.97313 6.27014C6.63288 6.26154 7.16039 5.71497 7.15451 5.04608C7.14862 4.37285 6.62064 3.85765 5.94346 3.86455M11.9487 3.86447C11.2798 3.85564 10.7311 4.38114 10.7201 5.0412C10.7093 5.68491 11.2605 6.25379 11.9108 6.27022C12.5565 6.28648 13.1184 5.73913 13.1332 5.07962C13.1481 4.41933 12.6158 3.8733 11.9487 3.86447M16.8996 6.26177C14.3427 6.42351 12.1157 7.29349 10.4732 9.33772C9.23259 10.8818 8.84179 12.6444 9.33406 14.575C9.4068 14.8603 9.33391 14.8923 9.082 14.896C8.10753 14.9102 7.14901 14.7995 6.21311 14.535C5.81038 14.4212 5.46343 14.4639 5.10865 14.6822C4.55967 15.0199 3.99412 15.3306 3.43593 15.6532C3.28797 15.7387 3.13398 15.8323 2.97278 15.7022C2.81251 15.5727 2.87278 15.404 2.91832 15.2385C3.03816 14.8039 3.13065 14.3605 3.2724 13.9334C3.41199 13.5126 3.29533 13.2265 2.94807 12.9655C1.722 12.0443 0.802131 10.8844 0.319851 9.41426C-0.539826 6.79402 0.361835 3.98694 2.68284 2.1304C4.85116 0.396015 7.35676 -0.212684 10.0862 0.0639336C12.3683 0.295236 14.3669 1.17203 15.9755 2.8432C16.8041 3.70412 17.3805 4.71245 17.6926 5.87299C17.7725 6.17013 17.7602 6.31553 17.4023 6.26572C17.2378 6.24279 17.0674 6.26177 16.8996 6.26177" fill="var(--fill-0, #FEFEFE)"/>
</svg>
