<svg preserveAspectRatio="none" width="100%" height="100%" overflow="visible" style="display: block;" viewBox="0 0 10 13" fill="none" xmlns="http://www.w3.org/2000/svg">
<path id="Fill 5" fill-rule="evenodd" clip-rule="evenodd" d="M8.33748 10.3536C8.33748 10.4748 8.23915 10.5732 8.11789 10.5732C7.99663 10.5732 7.89829 10.4748 7.89829 10.3536V2.11414C7.89829 1.99288 7.99663 1.89461 8.11789 1.89461C8.23915 1.89461 8.33748 1.99288 8.33748 2.11414V10.3536ZM6.70668 10.3536C6.70668 10.4748 6.6084 10.5732 6.48708 10.5732C6.36582 10.5732 6.26749 10.4748 6.26749 10.3536V2.11414C6.26749 1.99288 6.36582 1.89461 6.48708 1.89461C6.6084 1.89461 6.70668 1.99288 6.70668 2.11414V10.3536ZM5.07587 10.3536C5.07587 10.4748 4.97754 10.5732 4.85628 10.5732C4.73502 10.5732 4.63674 10.4748 4.63674 10.3536V2.11414C4.63674 1.99288 4.73502 1.89461 4.85628 1.89461C4.97754 1.89461 5.07587 1.99288 5.07587 2.11414V10.3536ZM3.44507 10.3536C3.44507 10.4748 3.34673 10.5732 3.22547 10.5732C3.10421 10.5732 3.00588 10.4748 3.00588 10.3536V2.11414C3.00588 1.99288 3.10421 1.89461 3.22547 1.89461C3.34673 1.89461 3.44507 1.99288 3.44507 2.11414V10.3536ZM1.81426 10.3536C1.81426 10.4748 1.71599 10.5732 1.59473 10.5732C1.47341 10.5732 1.37513 10.4748 1.37513 10.3536V2.11414C1.37513 1.99288 1.47341 1.89461 1.59473 1.89461C1.71599 1.89461 1.81426 1.99288 1.81426 2.11414V10.3536ZM8.77495 0.42914C7.98405 0.426396 7.1932 0.427196 6.40235 0.429483C6.26446 0.429883 6.17579 0.407129 6.08094 0.269519C5.99387 0.143113 5.79817 0.0312869 5.64409 0.0224254C5.12172 -0.00753227 4.59558 -0.00741792 4.07321 0.0224254C3.91884 0.0312297 3.7236 0.142084 3.63533 0.268032C3.54049 0.403299 3.45416 0.430226 3.31489 0.429712C2.55257 0.426853 1.79031 0.427882 1.02805 0.428511C0.310894 0.429083 0.000797928 0.737864 0.000512073 1.45279C-2.46678e-06 3.12075 0.00034056 4.33112 0.000454902 5.99914C0.000569244 7.69569 -0.00114589 9.3923 0.00142681 11.0889C0.00234155 11.7038 0.392248 12.0793 0.991458 12.0363C1.0711 12.0305 1.17932 11.9561 1.21523 11.884C1.41218 11.4888 1.71839 11.2573 2.16009 11.2583C2.60117 11.2592 2.90846 11.488 3.10198 11.8868C3.13669 11.9583 3.24971 12.0352 3.3273 12.036C4.34677 12.046 5.36636 12.046 6.38583 12.0361C6.46393 12.0354 6.57821 11.96 6.61251 11.8888C6.80524 11.4896 7.11196 11.2602 7.55304 11.2583C7.99485 11.2563 8.29998 11.4882 8.50065 11.8811C8.53964 11.9575 8.66261 12.0318 8.7502 12.0359C9.34197 12.064 9.71279 11.6969 9.71307 11.0909C9.71479 7.69775 9.71473 4.76219 9.71313 1.36903C9.71284 0.768279 9.37428 0.431198 8.77495 0.42914V0.42914Z" fill="var(--fill-0, #7DA84C)"/>
</svg>
