<svg preserveAspectRatio="none" width="100%" height="100%" overflow="visible" style="display: block;" viewBox="0 0 16 17" fill="none" xmlns="http://www.w3.org/2000/svg">
<path id="Fill 1" fill-rule="evenodd" clip-rule="evenodd" d="M1.91972 1.07394C2.09251 1.32212 2.25155 1.55135 2.41135 1.78003C4.20881 4.35179 6.00673 6.92324 7.80396 9.4953C9.14152 11.4094 10.4787 13.3238 11.8135 15.2399C11.873 15.3253 11.9329 15.3605 12.0403 15.3594C12.6646 15.3533 13.2889 15.3565 13.9133 15.3561C13.957 15.356 14.0006 15.3516 14.0568 15.3484C14.0268 15.3026 14.0074 15.2713 13.9863 15.2412C13.4958 14.5392 13.005 13.8375 12.5145 13.1355C9.73316 9.1556 6.95153 5.17594 4.17303 1.19406C4.10811 1.10108 4.04175 1.07088 3.93302 1.07165C3.3134 1.07631 2.69371 1.07394 2.07409 1.07394H1.91972ZM0 0.00275803H0.273568C1.71947 0.00275803 3.16538 0.0042872 4.61129 5.52454e-06C4.72444 -0.000376768 4.78638 0.038617 4.84808 0.128685C6.17769 2.07012 7.51044 4.00949 8.8428 5.94908C8.85595 5.96828 8.87124 5.98601 8.89755 6.01988C9.04641 5.84801 9.19237 5.68049 9.33733 5.51197C10.0681 4.66282 10.7991 3.81375 11.5293 2.96407C12.2473 2.12861 12.9646 1.29246 13.6823 0.456692C13.7953 0.325107 13.9059 0.191075 14.024 0.0641542C14.0541 0.0318887 14.1089 0.00589283 14.1526 0.00543407C14.5844 0.0011524 15.0161 0.00283449 15.486 0.00283449C13.4878 2.32702 11.5079 4.62979 9.52259 6.93892C11.6783 10.0779 13.8324 13.2147 16 16.3711H15.8748C14.3726 16.3711 12.8703 16.37 11.3681 16.3736C11.2666 16.3738 11.2096 16.3408 11.1533 16.2587C9.74111 14.1977 8.32625 12.1385 6.91177 10.0791C6.9016 10.0643 6.89112 10.0499 6.87224 10.0232C6.67887 10.247 6.48987 10.4646 6.30178 10.6832C5.62612 11.4683 4.95023 12.2533 4.27533 13.0391C3.56052 13.8712 2.84678 14.7043 2.13243 15.5367C1.90657 15.7998 1.68063 16.0629 1.45286 16.3243C1.4336 16.3464 1.39988 16.3691 1.37273 16.3693C0.924 16.3721 0.475113 16.3713 0.00107042 16.3713C0.214466 16.1219 0.410658 15.8917 0.607845 15.6625C1.1611 15.0193 1.71473 14.3764 2.26845 13.7335C2.822 13.0905 3.37602 12.448 3.9292 11.8047C4.52512 11.1117 5.12019 10.418 5.7158 9.72476C5.86849 9.54699 6.01919 9.36739 6.17647 9.19383C6.23014 9.13457 6.23725 9.09198 6.19076 9.02447C5.05268 7.37129 3.91628 5.7168 2.7798 4.0624C1.86597 2.7321 0.95229 1.40172 0.0386115 0.0711883C0.0285955 0.0564319 0.0209496 0.0400698 0 0.00275803V0.00275803Z" fill="var(--fill-0, #FEFEFE)"/>
</svg>
