<svg preserveAspectRatio="none" width="100%" height="100%" overflow="visible" style="display: block;" viewBox="0 0 4 9" fill="none" xmlns="http://www.w3.org/2000/svg">
<path id="Fill 1" fill-rule="evenodd" clip-rule="evenodd" d="M3.97877 4.8142C3.60713 4.52644 3.10263 4.23439 2.60609 4.05837C3.03589 3.43294 3.29641 2.76864 3.36957 2.26261C3.39896 2.05781 3.33835 1.85178 3.20335 1.69627C3.06987 1.54228 2.87579 1.4532 2.67099 1.4532H2.0777C2.23934 0.982984 2.31679 0.442664 2.31679 0H1.33779C1.33779 0.572769 1.18044 1.15931 1.01145 1.4532H0.178168V2.44659H2.31404C2.04832 3.34447 1.20217 4.53532 0 4.87573L0.270619 5.83117C0.641649 5.72616 0.982065 5.563 1.29156 5.36217V8.04051H2.31189V5.03615C2.63425 5.15646 3.01661 5.35881 3.35366 5.62024L3.97877 4.8142Z" fill="var(--fill-0, white)"/>
</svg>
