<svg preserveAspectRatio="none" width="100%" height="100%" overflow="visible" style="display: block;" viewBox="0 0 4 7" fill="none" xmlns="http://www.w3.org/2000/svg">
<path id="Fill 1" fill-rule="evenodd" clip-rule="evenodd" d="M3.24798 3.92996C2.9446 3.69505 2.53276 3.45665 2.12742 3.31295C2.47828 2.8024 2.69095 2.26011 2.75067 1.84703C2.77466 1.67984 2.72518 1.51166 2.61498 1.38471C2.50602 1.25901 2.34758 1.18629 2.1804 1.18629H1.69609C1.82803 0.802436 1.89126 0.361358 1.89126 0H1.09207C1.09207 0.467567 0.963623 0.946379 0.825677 1.18629H0.145443V1.99722H1.88901C1.6721 2.73018 0.981366 3.7023 0 3.98019L0.220913 4.76014C0.523795 4.67442 0.801686 4.54122 1.05434 4.37729V6.56368H1.88726V4.11114C2.15041 4.20935 2.46254 4.37454 2.73768 4.58795L3.24798 3.92996Z" fill="var(--fill-0, #7DA84C)"/>
</svg>
