<svg preserveAspectRatio="none" width="100%" height="100%" overflow="visible" style="display: block;" viewBox="0 0 8 11" fill="none" xmlns="http://www.w3.org/2000/svg">
<path id="Fill 3" fill-rule="evenodd" clip-rule="evenodd" d="M3.54972 1.84674C2.6272 1.85457 1.85552 2.63409 1.85943 3.55381C1.86335 4.47521 2.63485 5.25416 3.55494 5.26591C4.46739 5.27747 5.31421 4.42449 5.28699 3.52099C5.25939 2.60165 4.46795 1.83872 3.54972 1.84674M3.55214 10.2627C2.38128 8.17031 1.24361 6.23764 0.213333 4.24924C-0.237671 3.37836 0.0943826 2.47058 0.579133 1.66552C1.32956 0.420084 2.81253 -0.214006 4.26211 0.0650982C5.71636 0.345321 6.81432 1.4306 7.04402 2.87702C7.1007 3.23424 7.09455 3.64218 6.97914 3.97945C6.21249 6.22049 4.86451 8.14495 3.55214 10.2627" fill="var(--fill-0, #231916)"/>
</svg>
