<svg preserveAspectRatio="none" width="100%" height="100%" overflow="visible" style="display: block;" viewBox="0 0 16 16" fill="none" xmlns="http://www.w3.org/2000/svg">
<path id="Fill 1" fill-rule="evenodd" clip-rule="evenodd" d="M2.02439 0C3.02375 0.196896 4.04197 0.327526 5.01953 0.602455C7.99495 1.43952 10.4385 3.11418 12.3803 5.50774C13.8691 7.34296 14.8803 9.42854 15.3047 11.7537C15.4992 12.819 15.5234 13.922 15.5452 15.0095C15.5582 15.6348 15.1595 15.9747 14.5335 15.9834C13.2163 16.0016 11.8983 15.9995 10.5809 15.9848C9.95856 15.9778 9.54106 15.5709 9.5376 15.0275C9.53414 14.4942 9.95631 14.0942 10.5863 14.0821C11.4645 14.0648 12.3431 14.0771 13.2215 14.0769H13.7107C13.48 10.6068 12.1479 7.70145 9.65958 5.34838C7.92056 3.70383 5.8592 2.64236 3.51236 2.16673C2.85713 2.03402 2.18184 2.00063 1.51554 1.92519C1.38491 1.91048 1.25186 1.91689 1.12088 1.90425C0.46704 1.84041 0.124288 1.6013 0.0234178 1.14314C-0.0758955 0.692771 0.138649 0.333582 0.705808 0H2.02439Z" fill="var(--fill-0, #231916)"/>
</svg>
