<svg preserveAspectRatio="none" width="100%" height="100%" overflow="visible" style="display: block;" viewBox="0 0 19 9" fill="none" xmlns="http://www.w3.org/2000/svg">
<path id="Fill 1" fill-rule="evenodd" clip-rule="evenodd" d="M0 0.17207C0.321941 -0.00318101 0.537401 0.00218006 0.7536 0.00218006C6.58764 0.00245736 12.4217 0.00162547 18.2556 0.000978441C18.3172 0.000978441 18.3789 -0.00170209 18.4403 0.00181033C18.5596 0.00846545 18.7122 -0.0160291 18.7517 0.129367C18.7859 0.255075 18.6364 0.296669 18.5613 0.363128C17.1335 1.62723 15.7045 2.88995 14.2714 4.14813C12.8733 5.37545 11.47 6.59675 10.0698 7.82185C9.62931 8.20729 9.24599 8.23354 8.83966 7.87694C6.00865 5.39255 3.18087 2.90455 0.350503 0.419327C0.259827 0.339742 0.152606 0.278922 0 0.17207" fill="var(--fill-0, #FCFDFD)"/>
</svg>
