<svg preserveAspectRatio="none" width="100%" height="100%" overflow="visible" style="display: block;" viewBox="0 0 45 43" fill="none" xmlns="http://www.w3.org/2000/svg">
<path id="Fill 1" fill-rule="evenodd" clip-rule="evenodd" d="M3.04143 17.1167C2.40529 17.1141 2.00687 17.4391 1.92875 17.9195C1.84522 18.4336 2.12246 18.8737 2.69204 19.0464C4.37729 19.5574 6.06609 20.0571 7.75712 20.5489C8.36809 20.7266 8.9112 20.4311 9.06781 19.8707C9.21193 19.3548 8.89479 18.8385 8.29165 18.6584C6.77606 18.2055 5.25656 17.7653 3.73836 17.3205C3.46671 17.2409 3.19506 17.1616 3.04143 17.1167V17.1167ZM8.01329 14.7894C8.59257 14.7912 9.00405 14.4532 9.08925 13.98C9.17688 13.4908 8.87167 13.0346 8.30936 12.8647C6.64201 12.3609 4.97316 11.8626 3.30152 11.3743C2.66146 11.1873 2.12563 11.4479 1.95392 11.9942C1.77903 12.5507 2.10605 13.0705 2.77669 13.27C4.41197 13.7568 6.04912 14.2364 7.68627 14.7165C7.82163 14.7562 7.96202 14.778 8.01329 14.7894V14.7894ZM2.97189 5.48178C2.3626 5.46164 1.87188 5.9751 1.92073 6.55214C1.96753 7.10252 2.3447 7.33744 2.82087 7.47764C4.4597 7.95978 6.09704 8.44789 7.73661 8.92779C8.35951 9.11013 8.87708 8.84874 9.05439 8.27953C9.22517 7.73158 8.91064 7.23844 8.26275 7.04435C6.86462 6.62541 5.46649 6.20722 4.06761 5.79164C3.69249 5.68015 3.31457 5.57835 2.97189 5.48178V5.48178ZM37.9075 34.0919C38.9275 32.2924 39.8875 30.6481 40.7915 28.9737C41.0652 28.4664 41.2843 27.8877 41.3551 27.3203C41.5412 25.832 40.5766 24.4756 39.0494 23.9308C37.5411 23.3925 35.8131 23.9336 34.9393 25.265C34.2634 26.2951 34.0339 27.3703 34.7182 28.5231C35.4815 29.8088 36.1993 31.1217 36.9393 32.4214C37.2288 32.9294 37.5254 33.4334 37.9075 34.0919V34.0919ZM7.5263 36.0242C8.78143 34.0185 10.0681 32.1678 10.8385 30.0444C11.0322 29.5099 11.0695 28.8329 10.935 28.2807C10.484 26.4286 8.42346 25.3468 6.5775 25.8499C4.69313 26.3631 3.14118 28.8081 4.47816 30.7013C4.63085 30.9177 4.72408 31.1754 4.85757 31.4068C5.72676 32.9151 6.59969 34.4217 7.5263 36.0242V36.0242ZM29.0444 2.26304C28.7938 2.33351 28.6057 2.3818 28.4205 2.43904C24.4256 3.67683 20.4335 4.92357 16.4328 6.14197C16.0219 6.26707 15.9233 6.44736 15.9237 6.84877C15.9349 17.6809 15.9337 28.5132 15.9347 39.3455V39.9462C16.1908 39.8709 16.3609 39.823 16.5296 39.7708C20.5256 38.5341 24.5196 37.2903 28.5208 36.0701C28.9388 35.9427 29.0585 35.7583 29.0565 35.328C29.0382 31.0822 29.0442 9.59525 29.0444 3.09793V2.26304ZM0.0533228 0C0.489411 0.131815 0.876466 0.241256 1.25849 0.365613C5.55691 1.76542 9.8531 3.1725 14.1564 4.55758C14.4359 4.64745 14.792 4.64819 15.0731 4.56187C19.9068 3.08059 24.7334 1.576 29.5657 0.0898652C29.8065 0.0156612 30.108 -0.0141696 30.3407 0.0609666C32.8647 0.875533 35.3795 1.71918 37.8993 2.54699C40.0963 3.26908 42.2937 3.99005 44.4984 4.68809C44.8618 4.80294 45.0005 4.94687 45.0001 5.34698C44.988 17.4325 44.9898 29.5183 44.9897 41.6039V42.2305C44.4057 42.0513 43.9034 41.9051 43.4062 41.7433C39.1736 40.3653 34.9428 38.9814 30.7072 37.6138C30.4912 37.5439 30.2148 37.548 29.9965 37.6149C25.1306 39.1098 20.2693 40.6209 15.4031 42.1156C15.1619 42.1898 14.8595 42.2152 14.6253 42.1395C11.5607 41.1486 8.50419 40.1332 5.44393 39.1287C3.76856 38.5788 2.093 38.0296 0.410919 37.5014C0.101984 37.4042 -0.000186188 37.2704 2.54624e-07 36.945C0.0085766 24.7879 0.00727151 12.6307 0.00913593 0.473564C0.00913593 0.338579 0.0335599 0.203222 0.0533228 0V0Z" fill="var(--fill-0, #231916)"/>
</svg>
