<svg preserveAspectRatio="none" width="100%" height="100%" overflow="visible" style="display: block;" viewBox="0 0 7 7" fill="none" xmlns="http://www.w3.org/2000/svg">
<path id="Fill 9" fill-rule="evenodd" clip-rule="evenodd" d="M2.09768 4.4635V3.73629C2.09768 3.46564 2.31784 3.24598 2.58799 3.24598H3.62458V4.4635H2.09768ZM4.47975 3.24598H6.48571V2.40906H4.47975V1.47792H6.7681V0.66349H2.94835H2.14566C2.20189 0.449824 2.23437 0.228411 2.23437 0H1.37971C1.37971 0.929636 0.533291 1.84903 0 2.21013L0.479812 2.91836C0.847918 2.66895 1.41495 2.15166 1.80404 1.47792H2.94835H3.62458V2.40906H2.58799C1.85677 2.40906 1.26101 3.00432 1.26101 3.73629V4.4635H0.198922V5.29593H3.62458V6.59867H4.47975V5.29593H6.97002V4.4635H4.47975V3.24598Z" fill="var(--fill-0, #7DA84C)"/>
</svg>
