<svg preserveAspectRatio="none" width="100%" height="100%" overflow="visible" style="display: block;" viewBox="0 0 14 24" fill="none" xmlns="http://www.w3.org/2000/svg">
<path id="Fill 1" fill-rule="evenodd" clip-rule="evenodd" d="M6.95322 20.0576C6.33343 20.054 5.83273 20.5454 5.83181 21.1582C5.83088 21.7571 6.32895 22.2614 6.92737 22.2674C7.53792 22.2735 8.04693 21.771 8.04838 21.1605C8.04983 20.558 7.55638 20.061 6.95322 20.0576V20.0576ZM6.94214 1.07235C6.16187 1.07235 5.38161 1.07183 4.60134 1.07262C4.33325 1.07288 4.22406 1.19222 4.22288 1.48062C4.22195 1.76809 4.33352 1.89482 4.59923 1.89495C6.15963 1.89614 7.72016 1.89614 9.28069 1.89508C9.54812 1.89482 9.65876 1.77047 9.65876 1.4826C9.65889 1.19381 9.54944 1.07288 9.28294 1.07262C8.50267 1.07183 7.7224 1.07235 6.94214 1.07235V1.07235ZM1.3401 18.4367H12.5448V2.96256H1.3401V18.4367ZM12.4161 24.0001H1.46379C0.346999 23.6853 -0.00350725 22.9079 5.32012e-05 21.8319C0.022339 15.215 0.011262 8.59809 0.0113939 1.98106C0.0113939 1.87174 0.00836092 1.76216 0.0150862 1.6531C0.0377676 1.28493 0.166208 0.958684 0.390384 0.663299C0.664934 0.301979 1.05078 0.131737 1.46379 0H12.4161C13.5307 0.314902 13.8836 1.09477 13.88 2.16897C13.8576 8.78561 13.8688 15.4024 13.8687 22.0191C13.8687 22.1207 13.8706 22.2223 13.8662 22.3238C13.8493 22.7016 13.7182 23.0347 13.4891 23.3368C13.2151 23.6982 12.8285 23.8675 12.4161 24.0001V24.0001Z" fill="var(--fill-0, #FCFDFD)"/>
</svg>
