<svg width="45" height="46" viewBox="0 0 45 46" fill="none" xmlns="http://www.w3.org/2000/svg">
<mask id="mask0_0_64" style="mask-type:luminance" maskUnits="userSpaceOnUse" x="29" y="0" width="16" height="17">
<path fill-rule="evenodd" clip-rule="evenodd" d="M29.3563 0.55127H44.9018V16.5476H29.3563V0.55127Z" fill="white"/>
</mask>
<g mask="url(#mask0_0_64)">
<path fill-rule="evenodd" clip-rule="evenodd" d="M31.3807 0.55127C32.3801 0.748166 33.3983 0.878796 34.3759 1.15372C37.3513 1.99079 39.7948 3.66545 41.7366 6.05901C43.2255 7.89423 44.2366 9.9798 44.661 12.305C44.8555 13.3703 44.8797 14.4733 44.9015 15.5607C44.9145 16.186 44.5159 16.526 43.8899 16.5347C42.5727 16.5528 41.2546 16.5507 39.9372 16.536C39.3149 16.5291 38.8974 16.1222 38.8939 15.5787C38.8905 15.0455 39.3126 14.6455 39.9426 14.6333C40.8208 14.616 41.6994 14.6283 42.5779 14.6282H43.067C42.8363 11.1581 41.5043 8.25272 39.0159 5.89965C37.2769 4.2551 35.2155 3.19363 32.8687 2.718C32.2135 2.58529 31.5382 2.5519 30.8719 2.47646C30.7412 2.46175 30.6082 2.46815 30.4772 2.45552C29.8234 2.39168 29.4806 2.15257 29.3797 1.69441C29.2804 1.24404 29.495 0.884851 30.0621 0.55127H31.3807Z" fill="#231916"/>
</g>
<mask id="mask1_0_64" style="mask-type:luminance" maskUnits="userSpaceOnUse" x="0" y="29" width="16" height="17">
<path fill-rule="evenodd" clip-rule="evenodd" d="M0 29.5762H15.6258V45.5513H0V29.5762Z" fill="white"/>
</mask>
<g mask="url(#mask1_0_64)">
<path fill-rule="evenodd" clip-rule="evenodd" d="M0 30.4377C0.196204 29.7934 0.654533 29.5679 1.29869 29.5764C2.48491 29.5923 3.67165 29.5748 4.85805 29.5864C5.08643 29.5887 5.32918 29.6245 5.53923 29.7091C5.90897 29.8581 6.11642 30.3064 6.04133 30.6896C5.94842 31.1637 5.59407 31.4751 5.0738 31.4834C4.13655 31.4983 3.19879 31.4881 2.26137 31.4884H1.84404C1.979 32.3246 2.03194 33.1429 2.24787 33.9157C3.67892 39.0385 7.01318 42.2039 12.1846 43.4183C12.8192 43.5675 13.489 43.5661 14.1423 43.6348C14.3605 43.6578 14.5804 43.6704 14.7958 43.7081C15.3008 43.7965 15.6675 44.2341 15.6219 44.6781C15.5699 45.1876 15.1801 45.5503 14.639 45.5513C13.3152 45.5539 12.0115 45.3753 10.7437 44.9995C6.6315 43.7806 3.57857 41.2606 1.60891 37.4526C0.684812 35.6662 0.167829 33.7576 0.0756096 31.7411C0.070592 31.6279 0.026126 31.5166 0 31.4047V30.4377Z" fill="#231916"/>
</g>
<path fill-rule="evenodd" clip-rule="evenodd" d="M32.1066 25.1743C31.553 25.2244 31.2837 25.5296 31.1171 25.9795C29.5504 30.2095 27.9761 34.4363 26.4132 38.6675C26.3406 38.8641 26.3046 39.1011 26.3394 39.3044C26.4075 39.7043 26.6864 39.9437 27.0875 39.9998C27.5659 40.0664 27.9803 39.8252 28.1633 39.351C28.5204 38.425 28.8589 37.4915 29.193 36.557C29.2729 36.3335 29.3829 36.2418 29.6352 36.2439C31.2459 36.2563 32.857 36.2555 34.4678 36.2444C34.7126 36.243 34.8308 36.3148 34.9094 36.5505C35.0985 37.118 35.3141 37.6768 35.5255 38.2367C35.6852 38.6596 35.8285 39.0918 36.0274 39.4961C36.2307 39.909 36.6115 40.0472 37.06 39.9422C37.4555 39.8494 37.7687 39.4982 37.7543 39.0954C37.7464 38.8681 37.6716 38.6366 37.5919 38.4198C36.5479 35.5842 35.4978 32.7508 34.4484 29.9171C33.9567 28.5893 33.4664 27.261 32.9693 25.935C32.7838 25.4398 32.4471 25.1706 32.1066 25.1743M20.9873 32.6402C20.9872 29.8131 20.9822 26.9859 20.9896 24.1588C20.9932 22.8037 21.6806 21.8914 22.8892 21.6203C23.1146 21.5697 23.3539 21.5647 23.5868 21.5645C29.2265 21.5616 34.8659 21.5616 40.5057 21.5626C42.108 21.563 43.0816 22.5056 43.11 24.1095C43.1292 25.1931 43.114 26.2774 43.1141 27.3614C43.1141 31.9025 43.1091 36.4434 43.1178 40.9843C43.1197 42.047 42.7963 42.932 41.7975 43.4116C41.4166 43.5944 40.955 43.6865 40.5299 43.6879C34.8756 43.7055 29.2212 43.7026 23.5671 43.6979C21.9772 43.6965 20.9953 42.7171 20.9899 41.1217C20.9806 38.2945 20.9873 35.4674 20.9873 32.6402" fill="#231916"/>
<path fill-rule="evenodd" clip-rule="evenodd" d="M8.39325 11.7912C8.64966 14.3655 9.6537 16.5253 11.4055 18.3618C10.6235 18.8788 9.79886 19.2495 8.9111 19.4354C8.1704 19.5902 7.4079 19.6371 6.65942 19.7594C6.07824 19.8544 5.74051 20.2821 5.80245 20.7816C5.8656 21.2891 6.23552 21.5791 6.8314 21.5798C8.85833 21.5824 10.7302 21.0327 12.432 19.9425C12.7912 19.7124 13.0203 19.6952 13.3888 19.9337C15.113 21.0491 17.0165 21.5941 19.0736 21.5796C19.59 21.576 19.9171 21.3078 20.0171 20.8356C20.0966 20.4608 19.8866 20.007 19.5189 19.8561C19.308 19.7696 19.0682 19.7458 18.8384 19.7153C18.3175 19.6461 17.7896 19.6193 17.274 19.5231C16.2515 19.3326 15.3042 18.9423 14.4045 18.3618C16.1611 16.5324 17.1454 14.3785 17.4261 11.869C17.9562 11.869 18.4561 11.9102 18.945 11.8547C19.2738 11.8171 19.6366 11.7083 19.8935 11.5123C20.1875 11.288 20.2193 10.8963 20.0726 10.542C19.9046 10.1362 19.5836 9.93918 19.1414 9.93918C17.5597 9.93952 15.9776 9.92585 14.3958 9.94627C14.0138 9.95111 13.8908 9.85665 13.901 9.4606C13.9276 8.40674 13.9235 7.35132 13.8994 6.29728C13.8839 5.61022 13.2965 5.20276 12.654 5.38928C12.2371 5.51039 11.9886 5.90488 11.9829 6.50543C11.9737 7.45755 11.9813 8.40968 11.9791 9.36164C11.9787 9.51649 11.9633 9.67099 11.953 9.85768H11.433C9.90977 9.85786 8.38598 9.84073 6.86341 9.87308C6.57135 9.87931 6.23638 10.0222 6.00523 10.2072C5.70677 10.4458 5.70798 10.8384 5.83965 11.1816C6.00661 11.6171 6.39003 11.7725 6.82379 11.7872C7.33316 11.8045 7.84356 11.7912 8.39325 11.7912V11.7912ZM23.992 19.7037C22.5696 19.5919 21.3486 19.9632 20.3716 20.9375C19.3931 21.913 19.0402 23.1413 19.1386 24.5457H18.6116C13.9093 24.5457 9.20696 24.5462 4.50463 24.5455C2.82669 24.5452 1.85362 23.5788 1.85328 21.9085C1.85189 16.298 1.85172 10.6875 1.85328 5.0768C1.8538 3.38727 2.83672 2.40884 4.53231 2.40849C10.1281 2.40746 15.7241 2.40746 21.3199 2.40849C23.0164 2.40884 23.9911 3.38381 23.9915 5.07923C23.9927 9.78155 23.992 14.4839 23.992 19.186V19.7037Z" fill="#231916"/>
<path fill-rule="evenodd" clip-rule="evenodd" d="M34.0902 34.3732H29.9806C30.6613 32.5456 31.3303 30.7489 32.0349 28.8564C32.7415 30.7529 33.4109 32.5499 34.0902 34.3732" fill="#231916"/>
<path fill-rule="evenodd" clip-rule="evenodd" d="M10.3317 11.8169H15.4915C15.2615 13.9116 14.3968 15.6629 12.9673 17.1506C11.7989 16.4346 10.5383 13.8834 10.3317 11.8169" fill="#231916"/>
</svg>
