<svg preserveAspectRatio="none" width="100%" height="100%" overflow="visible" style="display: block;" viewBox="0 0 19 19" fill="none" xmlns="http://www.w3.org/2000/svg">
<path id="Fill 1" fill-rule="evenodd" clip-rule="evenodd" d="M9.50407 17.1775C10.7592 17.1775 12.0144 17.1821 13.2694 17.1738C13.5368 17.172 13.8086 17.1454 14.0704 17.092C15.8933 16.7202 17.1945 15.1246 17.1966 13.2634C17.1994 10.7323 17.1977 8.20109 17.1962 5.66993C17.1961 5.52945 17.1875 5.38814 17.1709 5.24868C16.9339 3.26492 15.2694 1.79035 13.2635 1.78901C10.7615 1.78732 8.25953 1.78757 5.75757 1.79044C5.54707 1.79069 5.33405 1.80138 5.12641 1.8342C3.20931 2.13686 1.8147 3.74971 1.80847 5.68819C1.80048 8.21515 1.80595 10.7422 1.80721 13.2692C1.80763 14.075 2.02882 14.8177 2.49517 15.4748C3.29162 16.5971 4.38795 17.1656 5.76363 17.1754C7.01044 17.1844 8.25726 17.1773 9.50407 17.1775V17.1775ZM18.9862 9.49218C18.9862 10.7682 19.0219 12.0453 18.9785 13.3199C18.8966 15.7294 17.7329 17.4553 15.5579 18.487C14.8415 18.8268 14.0716 18.9632 13.2781 18.9628C10.7594 18.9619 8.24076 18.964 5.72213 18.9619C2.95294 18.9595 0.60113 16.9966 0.106914 14.2698C0.0539747 13.9778 0.0241804 13.6774 0.0234229 13.3808C0.0172789 10.7751 -0.0328833 8.16785 0.0357951 5.56388C0.0993395 3.15811 1.32419 1.45462 3.50717 0.451123C4.21659 0.124985 4.975 -0.000252113 5.75487 3.80951e-07C8.24446 0.000757863 10.7341 8.45457e-05 13.2237 0.00016871C15.6935 0.00033704 17.845 1.50192 18.6565 3.78918C18.8862 4.43641 18.9884 5.10341 18.9879 5.78851C18.9868 7.02313 18.9876 8.25765 18.9876 9.49218H18.9862Z" fill="var(--fill-0, #FEFEFE)"/>
</svg>
