<svg preserveAspectRatio="none" width="100%" height="100%" overflow="visible" style="display: block;" viewBox="0 0 23 23" fill="none" xmlns="http://www.w3.org/2000/svg">
<path id="Fill 5" fill-rule="evenodd" clip-rule="evenodd" d="M11.1216 3.61224C10.568 3.66242 10.2988 3.96763 10.1321 4.41748C8.56545 8.64746 6.99114 12.8743 5.42825 17.1055C5.35559 17.3021 5.3196 17.5391 5.35437 17.7424C5.42254 18.1423 5.70145 18.3817 6.10251 18.4378C6.58091 18.5044 6.99529 18.2632 7.17835 17.789C7.53546 16.863 7.87389 15.9295 8.20799 14.995C8.28792 14.7715 8.39796 14.6798 8.65023 14.6819C10.2609 14.6943 11.872 14.6935 13.4828 14.6824C13.7277 14.681 13.8458 14.7528 13.9244 14.9885C14.1135 15.556 14.3291 16.1148 14.5405 16.6747C14.7002 17.0976 14.8435 17.5298 15.0424 17.9341C15.2457 18.3469 15.6266 18.4852 16.075 18.3802C16.4705 18.2874 16.7837 17.9362 16.7693 17.5334C16.7614 17.3061 16.6866 17.0746 16.6069 16.8578C15.5629 14.0221 14.5128 11.1888 13.4635 8.35506C12.9717 7.02731 12.4814 5.69903 11.9843 4.37301C11.7988 3.87783 11.4621 3.60861 11.1216 3.61224M0.00235614 11.0782C0.00218312 8.25107 -0.00283445 5.42393 0.0046054 2.59679C0.00823881 1.2417 0.695646 0.329367 1.90419 0.0582451C2.12963 0.0077234 2.36892 0.00270583 2.6018 0.00253281C8.24155 -0.000408528 13.881 -0.000408528 19.5207 0.00062959C21.123 0.000975629 22.0966 0.943587 22.125 2.54748C22.1442 3.6311 22.129 4.71542 22.1292 5.79938C22.1292 10.3405 22.1241 14.8814 22.1328 19.4223C22.1347 20.485 21.8113 21.3699 20.8125 21.8496C20.4317 22.0324 19.97 22.1245 19.5449 22.1259C13.8906 22.1435 8.23619 22.1406 2.58208 22.1359C0.992202 22.1345 0.010315 21.1551 0.00495144 19.5596C-0.00439163 16.7325 0.00235614 13.9054 0.00235614 11.0782" fill="var(--fill-0, #231916)"/>
</svg>
