<svg preserveAspectRatio="none" width="100%" height="100%" overflow="visible" style="display: block;" viewBox="0 0 5 4" fill="none" xmlns="http://www.w3.org/2000/svg">
<path id="Fill 7" fill-rule="evenodd" clip-rule="evenodd" d="M0.20417 3.84899C0.861163 3.68481 1.6541 3.16426 2.34983 2.51227C2.8059 2.95409 3.20899 3.40017 3.49788 3.77602L4.16462 3.26447C3.85549 2.86188 3.42241 2.38407 2.9316 1.90925C3.40317 1.36746 3.77852 0.787192 3.95295 0.267395L3.15626 0C3.01707 0.414588 2.70694 0.891151 2.31709 1.34372C1.76156 0.859663 1.17004 0.415087 0.617758 0.10196L0.20367 0.832424C0.699476 1.11381 1.23052 1.51216 1.73332 1.94724C1.1558 2.48028 0.512549 2.90586 0 3.03406L0.20417 3.84899Z" fill="var(--fill-0, #7DA84C)"/>
</svg>
