<svg width="48" height="48" viewBox="0 0 48 48" fill="none" xmlns="http://www.w3.org/2000/svg">
  <!-- Main house -->
  <path d="M24 8L8 20V36H16V28H32V36H40V20L24 8Z" fill="#7DA84C" stroke="#7DA84C" stroke-width="2" stroke-linejoin="round"/>
  <!-- Door -->
  <rect x="20" y="28" width="8" height="8" fill="white"/>
  <!-- Windows -->
  <rect x="12" y="24" width="4" height="4" fill="white"/>
  <rect x="32" y="24" width="4" height="4" fill="white"/>
  <!-- People silhouettes -->
  <circle cx="12" cy="40" r="3" fill="#7DA84C"/>
  <path d="M12 43C12 41 14 39 16 39C18 39 20 41 20 43" stroke="#7DA84C" stroke-width="2" fill="none"/>
  
  <circle cx="24" cy="40" r="3" fill="#7DA84C"/>
  <path d="M24 43C24 41 26 39 28 39C30 39 32 41 32 43" stroke="#7DA84C" stroke-width="2" fill="none"/>
  
  <circle cx="36" cy="40" r="3" fill="#7DA84C"/>
  <path d="M36 43C36 41 38 39 40 39C42 39 44 41 44 43" stroke="#7DA84C" stroke-width="2" fill="none"/>
</svg>
