<svg width="45" height="42" viewBox="0 0 45 42" fill="none" xmlns="http://www.w3.org/2000/svg">
<mask id="mask0_0_500" style="mask-type:luminance" maskUnits="userSpaceOnUse" x="0" y="0" width="37" height="42">
<path fill-rule="evenodd" clip-rule="evenodd" d="M0.825073 0.135742H36.578V41.2953H0.825073V0.135742Z" fill="white"/>
</mask>
<g mask="url(#mask0_0_500)">
<path fill-rule="evenodd" clip-rule="evenodd" d="M0.825043 7.39997C1.88695 5.87559 2.67 5.85826 3.83381 7.30683C5.38276 9.23407 6.94638 11.1495 8.5039 13.0697C8.95514 13.6259 9.48047 14.0941 10.179 13.5202C10.902 12.9261 10.5656 12.3007 10.083 11.7072C8.42257 9.66588 6.77019 7.61826 5.12009 5.56874C4.43019 4.71178 4.446 4.06874 5.15038 3.52702C5.85324 2.98626 6.4759 3.12093 7.1679 3.97045C8.78943 5.96169 10.4024 7.96017 12.0321 9.94474C12.714 10.7754 13.3536 10.9038 13.9591 10.3821C14.5801 9.84721 14.5563 9.19598 13.8995 8.38664C12.3014 6.41769 10.7009 4.45083 9.11514 2.47178C8.554 1.77121 8.66295 1.02302 9.35724 0.485496C10.0258 -0.0322189 10.7416 0.0218763 11.2809 0.6674C13.6788 3.53902 16.0915 6.39902 18.4513 9.30207C19.7481 10.8973 20.6393 12.6796 20.0515 14.8205C19.8393 15.5941 19.4188 16.3101 19.0523 17.1455C22.3894 20.9781 25.8245 24.9242 29.2607 28.8689C31.4479 31.38 33.6447 33.8825 35.8212 36.4025C36.6462 37.3573 36.8077 38.4672 36.2513 39.5895C35.7085 40.6851 34.7814 41.4472 33.5277 41.2695C32.8258 41.1701 31.9931 40.7369 31.5601 40.1859C26.4491 33.6821 21.403 27.1276 16.338 20.5876C16.1275 20.3158 15.9005 20.0566 15.6904 19.8026C12.4839 21.0545 10.3563 20.5259 8.15876 17.7838C5.66847 14.6765 3.26581 11.4992 0.825043 8.35236V7.39997Z" fill="#231916"/>
</g>
<path fill-rule="evenodd" clip-rule="evenodd" d="M44.8251 8.92382C44.2931 11.5663 43.2674 13.9852 41.5201 16.0598C39.73 18.1853 37.6595 19.9684 34.822 20.4088C33.5895 20.6002 32.2879 20.3488 30.7992 20.2899C29.9912 21.3088 28.9896 22.5716 27.906 23.9383C26.7487 22.6259 25.6277 21.3545 24.4719 20.0438C25.2249 19.1242 25.9813 18.2307 26.6954 17.3046C26.8592 17.0924 27.0115 16.7278 26.943 16.5019C25.8915 13.0392 26.9024 9.98648 28.8664 7.18382C30.8811 4.30858 33.4675 2.11696 36.9822 1.29829C40.8024 0.408576 43.9647 2.54362 44.658 6.4002C44.6847 6.5482 44.7681 6.6861 44.8251 6.82858V8.92382Z" fill="#231916"/>
<path fill-rule="evenodd" clip-rule="evenodd" d="M18.6634 27.084C19.8272 28.5638 20.9173 29.9499 22.056 31.3975C19.795 34.2566 17.5943 37.1112 15.3101 39.8975C14.2183 41.2289 12.439 41.3432 11.2539 40.3221C10.1053 39.3329 9.99256 37.6739 11.0752 36.3084C12.571 34.4223 14.1293 32.5863 15.6606 30.7286C16.6411 29.5392 17.6209 28.3491 18.6634 27.084" fill="#231916"/>
</svg>
