<svg width="40" height="40" viewBox="0 0 40 40" fill="none" xmlns="http://www.w3.org/2000/svg">
<mask id="mask0_0_526" style="mask-type:luminance" maskUnits="userSpaceOnUse" x="0" y="0" width="40" height="40">
<path fill-rule="evenodd" clip-rule="evenodd" d="M0.195862 0.899414H39.1868V39.8994H0.195862V0.899414Z" fill="white"/>
</mask>
<g mask="url(#mask0_0_526)">
<path fill-rule="evenodd" clip-rule="evenodd" d="M31.7623 27.0011C31.1024 27.0036 30.4425 27.0082 29.783 26.9983C29.5275 26.9945 29.4285 27.023 29.5918 27.2985C30.0954 28.148 30.5763 29.0113 31.0721 29.8657C31.4519 30.5201 31.5222 31.1846 31.0999 31.8374C30.689 32.4727 30.0769 32.7246 29.3319 32.6418C28.6968 32.5716 28.2701 32.2035 27.9724 31.6569C26.6751 29.277 25.2753 26.956 23.9325 24.602C23.8702 24.4925 23.7973 24.3892 23.7295 24.2831C23.3151 23.4309 22.7648 22.6564 22.3197 21.8237C21.8738 20.9892 21.2988 20.2154 21.034 19.2913C20.5656 17.6574 20.7614 16.1281 21.8115 14.7541C22.1028 14.3733 22.1236 14.3838 22.3616 14.796C23.9662 17.5713 25.5733 20.3451 27.1689 23.1257C27.3062 23.3649 27.4536 23.4589 27.7327 23.4555C29.0266 23.4405 30.3208 23.4488 31.6149 23.4488C32.881 23.449 33.3909 23.8163 33.7631 24.9965C33.7663 26.2801 33.0526 26.9966 31.7623 27.0011M23.4451 26.6243C23.3668 26.8778 23.2549 26.9889 22.9672 26.9886C17.7509 26.9794 12.535 26.9861 7.31867 26.9792C5.7312 26.9771 4.96393 25.6644 5.6798 24.2079C6.14701 23.632 6.75112 23.4187 7.48869 23.4353C8.78182 23.4644 10.0763 23.4384 11.37 23.4481C11.5988 23.4498 11.7355 23.3862 11.8517 23.1781C13.1562 20.8456 14.5371 18.5569 15.8274 16.2155C16.2895 15.3767 16.7835 14.5481 17.2993 13.737C17.4598 13.4848 17.4389 13.3003 17.2915 13.0537C16.7481 12.1442 16.2211 11.2248 15.7023 10.3009C15.2566 9.50714 15.3769 8.75224 15.9873 8.07674C16.5368 7.46787 17.713 7.47111 18.2958 7.99544C18.5325 8.2083 18.7375 8.44438 18.8872 8.73187C19.0737 9.09075 19.2839 9.43726 19.5213 9.85498C19.8222 9.34359 20.0938 8.87961 20.3671 8.41696C20.5864 8.04589 20.8862 7.78449 21.3171 7.67806C22.1139 7.4812 22.7597 7.72109 23.277 8.33719C23.6943 8.83411 23.747 9.6227 23.3817 10.2695C22.7523 11.3844 22.1026 12.4879 21.462 13.5965C19.6428 16.7452 17.8238 19.8939 16.0052 23.0431C15.9428 23.1511 15.8862 23.2624 15.7992 23.4235C15.9664 23.4313 16.097 23.4425 16.2276 23.4427C17.7751 23.4437 19.3233 23.4719 20.8699 23.4328C21.8047 23.4092 22.5584 23.6868 23.1268 24.4358C23.5222 25.1231 23.6875 25.8397 23.4451 26.6243M12.5719 29.0082C12.0013 29.9764 11.4574 30.9607 10.8677 31.9168C10.4089 32.6609 9.31872 32.8752 8.51432 32.4272C7.75428 32.0042 7.41349 30.9978 7.82187 30.1751C8.20246 29.4084 8.66644 28.683 9.08644 27.9352C9.15936 27.8055 9.27284 27.7714 9.3945 27.7421C9.68979 27.6707 9.98718 27.6062 10.2139 27.6216C11.2036 27.6098 11.9284 27.9955 12.5371 28.6451C12.6526 28.7683 12.6561 28.8652 12.5719 29.0082M5.26303 24.1243C5.24247 24.1245 5.22191 24.1245 5.20135 24.1245C5.22191 24.1245 5.24247 24.1245 5.26303 24.1243M39.1764 8.7926C39.1591 4.97833 36.5974 1.90658 33.0131 1.08999C32.7348 1.02659 32.4366 1.04868 32.1785 0.899414H7.12543C7.00205 1.04164 6.81985 1.0028 6.66716 1.0325C3.2626 1.69239 0.802193 4.25447 0.267007 7.70624C0.260153 7.75003 0.220361 7.78868 0.195801 7.82961V24.127V32.9613C0.347161 33.2313 0.337641 33.541 0.406182 33.831C1.23666 37.3483 4.35335 39.8783 7.97 39.8871C15.7842 39.9056 23.5984 39.9014 31.4125 39.8869C33.468 39.8831 35.2173 39.1033 36.7187 37.6913C38.4343 36.0782 39.1964 34.0981 39.1854 31.7761C39.1744 29.4038 39.2001 13.955 39.1764 8.7926" fill="#231916"/>
</g>
</svg>
