<svg width="45" height="37" viewBox="0 0 45 37" fill="none" xmlns="http://www.w3.org/2000/svg">
<path fill-rule="evenodd" clip-rule="evenodd" d="M27.5585 8.44124C27.5585 7.45302 27.5863 6.49481 27.5479 5.5391C27.526 4.98706 27.0448 4.56047 26.4563 4.55651C23.9395 4.53963 21.4223 4.54151 18.9053 4.55276C18.3393 4.55526 17.8756 4.88869 17.83 5.41844C17.7437 6.41874 17.8049 7.43176 17.8049 8.44124H27.5585ZM24.1554 21.0497C24.1554 21.0497 24.1738 18.6967 24.1454 17.8827C24.1156 17.028 23.4604 16.4456 22.6122 16.4699C21.8166 16.4929 21.2177 17.101 21.2008 17.9537C21.1808 18.9672 21.1962 21.0509 21.1962 21.0509C21.1962 21.0509 19.1349 21.0417 18.139 21.054C17.4252 21.0628 16.8886 21.4412 16.6796 22.0452C16.3314 23.0507 17.051 24.0018 18.1984 24.0229C19.1758 24.0406 21.1958 24.0264 21.1958 24.0264C21.1958 24.0264 21.1772 26.384 21.2135 27.2347C21.2431 27.9368 21.7895 28.4957 22.4595 28.5961C23.1276 28.6964 23.8212 28.3065 24.0468 27.6506C24.1406 27.3793 24.1585 24.0258 24.1585 24.0258C24.1585 24.0258 26.1133 24.0306 27.0557 24.0245C28.0649 24.0183 28.7758 23.3875 28.7637 22.5205C28.752 21.6611 28.0739 21.0601 27.0867 21.0515C26.1433 21.0432 24.1554 21.0497 24.1554 21.0497V21.0497ZM34.2231 36.5815H11.1271V8.48041H14.0453C14.0453 7.98797 14.0334 7.55117 14.0478 7.115C14.0744 6.32059 14.0236 5.50909 14.1699 4.73594C14.6067 2.42857 16.6019 0.832249 18.964 0.82433C21.3714 0.816411 23.7788 0.820996 26.1865 0.822663C29.1692 0.825164 31.2515 2.87162 31.3032 5.85899C31.3178 6.70675 31.3053 7.55492 31.3053 8.45791H34.2231V36.5815Z" fill="#231916"/>
<mask id="mask0_0_542" style="mask-type:luminance" maskUnits="userSpaceOnUse" x="0" y="8" width="9" height="29">
<path fill-rule="evenodd" clip-rule="evenodd" d="M0.66687 8.4707H8.61984V36.6108H0.66687V8.4707Z" fill="white"/>
</mask>
<g mask="url(#mask0_0_542)">
<path fill-rule="evenodd" clip-rule="evenodd" d="M8.61984 8.47246V36.5437C8.53211 36.5633 8.44771 36.5985 8.3631 36.5987C7.30757 36.6021 6.25121 36.6265 5.19651 36.5948C2.65344 36.5187 0.678048 34.4112 0.67388 31.7708C0.665961 26.4746 0.666586 21.1784 0.675339 15.8822C0.677423 14.7177 0.619697 13.5382 0.779746 12.3922C1.10255 10.0802 3.04564 8.4858 5.38323 8.47351C6.45189 8.46788 7.52076 8.47246 8.61984 8.47246" fill="#231916"/>
</g>
<path fill-rule="evenodd" clip-rule="evenodd" d="M36.7469 8.57254C38.1654 8.57254 39.5742 8.4052 40.9267 8.61068C43.1172 8.94307 44.6603 10.8722 44.6685 13.0787C44.6914 19.3748 44.6972 25.6711 44.6685 31.967C44.6566 34.5569 42.5507 36.5798 39.9572 36.6007C38.903 36.6092 37.8485 36.6021 36.7469 36.6021V8.57254Z" fill="#231916"/>
</svg>
