<svg width="41" height="42" viewBox="0 0 41 42" fill="none" xmlns="http://www.w3.org/2000/svg">
<mask id="mask0_0_534" style="mask-type:luminance" maskUnits="userSpaceOnUse" x="0" y="0" width="41" height="42">
<path fill-rule="evenodd" clip-rule="evenodd" d="M0.522278 0.819824H40.3313V41.3753H0.522278V0.819824Z" fill="white"/>
</mask>
<g mask="url(#mask0_0_534)">
<path fill-rule="evenodd" clip-rule="evenodd" d="M15.2008 5.6241C20.5735 8.16467 25.664 10.5746 30.7601 12.9722C30.9369 13.0553 31.2067 13.0997 31.3712 13.0253C32.9752 12.3001 34.5661 11.5459 36.192 10.7857C36.0709 10.6373 36.0536 10.5967 36.024 10.5827C30.9717 8.17363 25.9197 5.76415 20.8607 3.36904C20.6548 3.27151 20.3405 3.21733 20.1492 3.30361C18.5687 4.01861 17.0053 4.77114 15.2008 5.6241V5.6241ZM4.52901 10.68C5.08252 10.9624 5.43075 11.1514 5.78815 11.3211C10.1216 13.3773 14.4798 15.3837 18.7754 17.5156C19.9768 18.1119 20.9501 18.1802 22.0983 17.4896C23.1505 16.8569 24.3053 16.3943 25.6054 15.7639C20.2953 13.2471 15.2433 10.8463 10.1795 8.47018C9.92295 8.34973 9.5197 8.33827 9.26379 8.45288C7.74208 9.13351 6.2437 9.86581 4.52901 10.68V10.68ZM37.9486 12.5689C36.2997 13.3479 34.8735 14.0552 33.4166 14.6923C32.8597 14.9357 32.6743 15.2556 32.682 15.8483C32.713 18.2855 32.632 20.7258 32.7314 23.1595C32.7791 24.3231 32.4146 24.9167 31.3191 25.3209C29.9509 25.8255 28.6595 26.5367 27.1349 27.2526V17.7007C25.5023 18.4622 24.0406 19.1849 22.5435 19.8253C21.8041 20.1417 21.5434 20.5749 21.549 21.3902C21.5861 26.7016 21.5667 32.0132 21.5707 37.3248C21.5709 37.6343 21.6142 37.9435 21.6392 38.2743C21.8303 38.2599 21.9475 38.2816 22.0352 38.2403C27.1297 35.8377 32.2281 33.4436 37.2984 30.991C37.6279 30.8316 37.915 30.2206 37.9211 29.8152C37.9709 26.5053 37.9488 23.1945 37.9486 19.8839V12.5689ZM19.2785 38.4562V37.3361C19.2783 32.023 19.2602 26.7097 19.2966 21.3968C19.3025 20.5837 19.0347 20.165 18.3076 19.8268C13.9904 17.8189 9.69455 15.7647 5.38928 13.7312C4.61341 13.365 3.82672 13.022 2.96875 12.634C2.93874 12.9505 2.90769 13.1272 2.90769 13.3039C2.90331 18.8354 2.91519 24.3669 2.88372 29.8984C2.87997 30.5707 3.1661 30.8614 3.71147 31.1158C6.80763 32.5613 9.89232 34.0307 12.982 35.4897C15.008 36.4462 17.036 37.3998 19.2785 38.4562V38.4562ZM40.3101 21.0899C40.3103 24.3286 40.2751 27.5681 40.3308 30.8057C40.3485 31.8361 39.9602 32.3902 39.0491 32.8159C33.1875 35.5549 27.3412 38.3272 21.5006 41.1112C20.7429 41.4725 20.0783 41.4582 19.3258 41.0993C13.4532 38.2989 7.57411 35.5116 1.68169 32.753C0.837055 32.3573 0.518207 31.8181 0.522167 30.8916C0.551759 24.3777 0.547591 17.8635 0.529461 11.3498C0.52696 10.4637 0.753071 9.84706 1.62542 9.43777C7.61495 6.62899 13.5797 3.76791 19.5788 0.980397C20.0598 0.756995 20.8288 0.77075 21.3141 0.996443C27.2797 3.77021 33.2113 6.6167 39.169 9.40713C40.0182 9.80496 40.3379 10.3383 40.3262 11.2644C40.2851 14.5389 40.3101 17.8145 40.3101 21.0899V21.0899Z" fill="#231916"/>
</g>
</svg>
