<svg width="56" height="35" viewBox="0 0 56 35" fill="none" xmlns="http://www.w3.org/2000/svg">
<mask id="mask0_0_492" style="mask-type:luminance" maskUnits="userSpaceOnUse" x="0" y="0" width="56" height="35">
<path fill-rule="evenodd" clip-rule="evenodd" d="M0.2677 0.724121H55.4895V34.195H0.2677V0.724121Z" fill="white"/>
</mask>
<g mask="url(#mask0_0_492)">
<path fill-rule="evenodd" clip-rule="evenodd" d="M25.4331 20.4955C23.2875 17.714 21.2396 15.0593 19.1364 12.3328C17.2682 15.4802 15.4541 18.5364 13.5597 21.7273C17.572 21.3112 21.4315 20.9106 25.4331 20.4955M21.3467 11.121C23.4909 13.9035 25.5361 16.5578 27.6482 19.2991C29.6046 16.0491 31.5 12.9005 33.4779 9.61489C29.3831 10.1234 25.45 10.6114 21.3467 11.121M14.3246 15.5138C11.7213 14.2209 7.49684 14.6946 4.81207 17.749C2.33006 20.573 2.09874 25.0775 4.33546 28.1414C6.72411 31.4136 11.055 32.5688 14.6607 30.9329C17.85 29.4857 19.6881 26.1687 19.5003 23.6515C18.446 23.7584 17.3917 23.864 16.3381 23.9728C14.7136 24.1404 13.089 24.3096 11.4647 24.4794C10.9387 24.5347 10.4807 24.4046 10.1785 23.9482C9.88174 23.5004 9.87757 23.0296 10.1624 22.5643C10.2583 22.4075 10.3473 22.2467 10.4409 22.0887C11.7271 19.9103 13.0139 17.7322 14.3246 15.5138M39.3887 16.6185C36.1389 19.0649 34.88 23.9978 37.5664 27.9795C40.1699 31.8381 45.4747 32.8301 49.2656 30.2035C53.1437 27.5162 54.1323 22.2331 51.4769 18.4572C48.8359 14.7014 44.0572 14.1632 41.64 15.4631C41.7658 15.6953 41.8896 15.9289 42.0182 16.1596C43.1817 18.2465 44.3506 20.33 45.5076 22.4203C45.949 23.2178 45.7869 23.9422 45.1104 24.3329C44.4835 24.6947 43.776 24.4371 43.3307 23.6606C42.8026 22.7395 42.2922 21.808 41.7738 20.8815C40.9879 19.476 40.2014 18.071 39.3887 16.6185M35.9355 10.4418C35.7611 10.7192 35.6415 10.9011 35.5296 11.0874C33.3756 14.6775 31.2149 18.2632 29.0768 21.8626C28.7081 22.4834 28.245 22.7799 27.5092 22.8323C25.8802 22.9483 24.2582 23.1611 22.6315 23.3126C22.2499 23.348 22.1223 23.4956 22.0923 23.878C21.6758 29.1727 18.0657 33.1592 12.9045 34.0459C6.33378 35.1752 0.0727059 29.7381 0.27235 23.0761C0.450946 17.1107 4.98962 12.5154 10.9243 12.3234C12.3656 12.2767 13.7769 12.5197 15.1169 13.0716C15.5093 13.2331 15.7285 13.2052 15.9436 12.8011C16.3554 12.0265 16.8451 11.2935 17.26 10.5206C17.3482 10.3566 17.3382 10.0334 17.2315 9.88831C16.4085 8.77005 15.5616 7.66888 14.6915 6.5871C14.5653 6.42996 14.2781 6.33556 14.0616 6.32868C13.1636 6.29992 12.2643 6.3241 11.3655 6.31305C10.5003 6.30263 9.9453 5.79373 9.9553 5.04412C9.96489 4.32015 10.5115 3.81437 11.3399 3.81125C13.8519 3.80208 16.3637 3.8027 18.8757 3.81083C19.712 3.81354 20.2539 4.3064 20.2693 5.03391C20.2849 5.78873 19.7345 6.29513 18.8697 6.3143C18.5265 6.32181 18.1832 6.31555 17.6449 6.31555C18.3343 7.19624 18.9189 7.96126 19.533 8.70232C19.6045 8.78881 19.8417 8.77047 19.9961 8.7515C24.5777 8.19029 29.1585 7.62304 33.7392 7.05495C33.7978 7.04786 33.8532 7.01681 33.9951 6.96721C33.4047 5.90751 32.825 4.86699 32.2092 3.76144C31.4104 4.27806 30.6697 4.77884 29.9053 5.24043C29.6169 5.41465 29.2806 5.57554 28.9538 5.60471C28.4145 5.65264 28.0208 5.35047 27.8164 4.8449C27.5994 4.30869 27.7088 3.81396 28.1588 3.46635C28.7229 3.03039 29.331 2.65048 29.9243 2.25244C30.5007 1.86566 31.0803 1.48283 31.6625 1.10438C32.6553 0.459185 33.3403 0.625069 33.9314 1.67831C35.5898 4.63483 37.2386 7.59678 38.891 10.5568C39.2792 11.2523 39.7004 11.9321 40.0426 12.6494C40.262 13.1087 40.5096 13.0674 40.9137 12.9342C44.1834 11.856 47.3294 12.1407 50.2753 13.9485C54.2392 16.3813 56.2494 21.1642 55.2245 25.5825C54.1471 30.2281 50.3793 33.6068 45.6929 34.1299C41.2248 34.6286 36.7191 32.1472 34.7466 28.1016C32.7037 23.9115 33.4702 18.9463 36.677 15.6688C37.0329 15.305 37.4499 15.0011 37.8092 14.64C37.9245 14.5243 38.0487 14.2594 37.9934 14.1563C37.3432 12.9372 36.6599 11.7362 35.9355 10.4418" fill="#231916"/>
</g>
</svg>
