<svg width="11" height="16" viewBox="0 0 11 16" fill="none" xmlns="http://www.w3.org/2000/svg">
<mask id="mask0_0_6" style="mask-type:luminance" maskUnits="userSpaceOnUse" x="2" y="14" width="2" height="2">
<path fill-rule="evenodd" clip-rule="evenodd" d="M2.1611 14.2539H3.55714V15.6465H2.1611V14.2539Z" fill="white"/>
</mask>
<g mask="url(#mask0_0_6)">
<path fill-rule="evenodd" clip-rule="evenodd" d="M3.55704 14.9643C3.55098 15.3438 3.24037 15.6467 2.85744 15.6465C2.4577 15.6463 2.15292 15.335 2.16127 14.9354C2.16933 14.5462 2.46856 14.2534 2.8579 14.2539C3.25518 14.2544 3.56339 14.5676 3.55704 14.9643" fill="#7DA84C"/>
</g>
<mask id="mask1_0_6" style="mask-type:luminance" maskUnits="userSpaceOnUse" x="7" y="14" width="2" height="2">
<path fill-rule="evenodd" clip-rule="evenodd" d="M7.55429 14.2542H8.9502V15.6467H7.55429V14.2542Z" fill="white"/>
</mask>
<g mask="url(#mask1_0_6)">
<path fill-rule="evenodd" clip-rule="evenodd" d="M8.95016 14.9599C8.9465 15.3463 8.64607 15.6446 8.25834 15.6467C7.86397 15.6488 7.54793 15.3317 7.55439 14.9402C7.56068 14.5552 7.86345 14.2562 8.24913 14.2542C8.65024 14.252 8.95399 14.5579 8.95016 14.9599" fill="#7DA84C"/>
</g>
<path fill-rule="evenodd" clip-rule="evenodd" d="M9.03548 13.0316C9.03548 13.1528 8.93714 13.2511 8.81588 13.2511C8.69462 13.2511 8.59629 13.1528 8.59629 13.0316V4.79212C8.59629 4.67086 8.69462 4.57258 8.81588 4.57258C8.93714 4.57258 9.03548 4.67086 9.03548 4.79212V13.0316ZM7.40467 13.0316C7.40467 13.1528 7.3064 13.2511 7.18508 13.2511C7.06382 13.2511 6.96549 13.1528 6.96549 13.0316V4.79212C6.96549 4.67086 7.06382 4.57258 7.18508 4.57258C7.3064 4.57258 7.40467 4.67086 7.40467 4.79212V13.0316ZM5.77387 13.0316C5.77387 13.1528 5.67554 13.2511 5.55428 13.2511C5.43302 13.2511 5.33474 13.1528 5.33474 13.0316V4.79212C5.33474 4.67086 5.43302 4.57258 5.55428 4.57258C5.67554 4.57258 5.77387 4.67086 5.77387 4.79212V13.0316ZM4.14307 13.0316C4.14307 13.1528 4.04473 13.2511 3.92347 13.2511C3.80221 13.2511 3.70388 13.1528 3.70388 13.0316V4.79212C3.70388 4.67086 3.80221 4.57258 3.92347 4.57258C4.04473 4.57258 4.14307 4.67086 4.14307 4.79212V13.0316ZM2.51226 13.0316C2.51226 13.1528 2.41398 13.2511 2.29272 13.2511C2.17141 13.2511 2.07313 13.1528 2.07313 13.0316V4.79212C2.07313 4.67086 2.17141 4.57258 2.29272 4.57258C2.41398 4.57258 2.51226 4.67086 2.51226 4.79212V13.0316ZM9.47295 3.10712C8.68205 3.10437 7.8912 3.10517 7.10035 3.10746C6.96246 3.10786 6.87378 3.08511 6.77894 2.9475C6.69187 2.82109 6.49617 2.70927 6.34209 2.7004C5.81972 2.67045 5.29358 2.67056 4.7712 2.7004C4.61684 2.70921 4.4216 2.82006 4.33333 2.94601C4.23848 3.08128 4.15216 3.1082 4.01289 3.10769C3.25057 3.10483 2.48831 3.10586 1.72605 3.10649C1.00889 3.10706 0.698796 3.41584 0.69851 4.13077C0.697996 5.79873 0.698339 7.0091 0.698453 8.67712C0.698567 10.3737 0.696852 12.0703 0.699425 13.7668C0.70034 14.3818 1.09025 14.7573 1.68946 14.7143C1.7691 14.7085 1.87732 14.6341 1.91322 14.562C2.11018 14.1667 2.41639 13.9353 2.85809 13.9362C3.29916 13.9371 3.60646 14.1659 3.79998 14.5648C3.83469 14.6363 3.94771 14.7132 4.02529 14.714C5.04477 14.7239 6.06436 14.7239 7.08383 14.7141C7.16193 14.7134 7.27621 14.6379 7.31051 14.5668C7.50324 14.1676 7.80996 13.9382 8.25103 13.9362C8.69285 13.9343 8.99797 14.1662 9.19864 14.5591C9.23763 14.6355 9.36061 14.7098 9.4482 14.7139C10.04 14.742 10.4108 14.3749 10.4111 13.7689C10.4128 10.3757 10.4127 7.44017 10.4111 4.04701C10.4108 3.44626 10.0723 3.10918 9.47295 3.10712V3.10712Z" fill="#7DA84C"/>
<mask id="mask2_0_6" style="mask-type:luminance" maskUnits="userSpaceOnUse" x="2" y="0" width="7" height="3">
<path fill-rule="evenodd" clip-rule="evenodd" d="M2.83875 0.429199H8.27634V2.88103H2.83875V0.429199Z" fill="white"/>
</mask>
<g mask="url(#mask2_0_6)">
<path fill-rule="evenodd" clip-rule="evenodd" d="M7.83315 0.429199H3.28188C3.03707 0.429199 2.83875 0.62764 2.83875 0.872389C2.83875 1.11714 3.03707 1.31552 3.28188 1.31552C3.28188 1.31552 3.31361 1.3261 3.32761 1.32959V2.88104H3.84747V1.31552H7.27853V2.87223H7.79948V1.32919C7.81726 1.32415 7.8216 1.3197 7.81474 1.31552H7.83315C8.0779 1.31552 8.27634 1.11714 8.27634 0.872389C8.27634 0.62764 8.0779 0.429199 7.83315 0.429199" fill="#7DA84C"/>
</g>
</svg>
