<svg width="120" height="30" viewBox="0 0 120 30" fill="none" xmlns="http://www.w3.org/2000/svg">
<path fill-rule="evenodd" clip-rule="evenodd" d="M93.5245 26.57C93.2211 26.3351 92.8092 26.0967 92.4039 25.953C92.7548 25.4424 92.9674 24.9002 93.0272 24.4871C93.0512 24.3199 93.0017 24.1517 92.8915 24.0248C92.7825 23.8991 92.6241 23.8263 92.4569 23.8263H91.9726C92.1045 23.4425 92.1677 23.0014 92.1677 22.64H91.3686C91.3686 23.1076 91.2401 23.5864 91.1022 23.8263H90.4219V24.6373H92.1655C91.9486 25.3702 91.2579 26.3423 90.2765 26.6202L90.4974 27.4002C90.8003 27.3145 91.0782 27.1813 91.3308 27.0173V29.2037H92.1638V26.7512C92.4269 26.8494 92.739 27.0146 93.0142 27.228L93.5245 26.57Z" fill="#7DA84C"/>
<path fill-rule="evenodd" clip-rule="evenodd" d="M95.6206 25.2458H97.2075V24.4017H95.6206V22.6139H94.728V24.4017H93.4212V25.2458H94.728V28.1627H93.0889V29.0066H97.4154V28.1627H95.6206V25.2458Z" fill="#7DA84C"/>
<path fill-rule="evenodd" clip-rule="evenodd" d="M115.203 28.1902C114.841 28.1902 114.548 27.8966 114.548 27.536V23.687H119.872V22.8208H113.682V27.536C113.682 28.3744 114.364 29.0566 115.203 29.0566H120V28.1902H115.203Z" fill="#7DA84C"/>
<path fill-rule="evenodd" clip-rule="evenodd" d="M115.352 27.9311C116.009 27.7669 116.802 27.2463 117.497 26.5943C117.953 27.0362 118.356 27.4822 118.645 27.8581L119.312 27.3465C119.003 26.9439 118.57 26.4661 118.079 25.9913C118.551 25.4495 118.926 24.8693 119.1 24.3495L118.304 24.0821C118.165 24.4966 117.854 24.9732 117.465 25.4258C116.909 24.9417 116.318 24.4971 115.765 24.184L115.351 24.9145C115.847 25.1959 116.378 25.5942 116.881 26.0293C116.303 26.5623 115.66 26.9879 115.147 27.1161L115.352 27.9311Z" fill="#7DA84C"/>
<path fill-rule="evenodd" clip-rule="evenodd" d="M69.1739 27.0688V26.3416C69.1739 26.071 69.394 25.8513 69.6642 25.8513H70.7008V27.0688H69.1739ZM71.5559 25.8513H73.5619V25.0144H71.5559V24.0833H73.8443V23.2688H70.0245H69.2218C69.2781 23.0552 69.3105 22.8338 69.3105 22.6053H68.4559C68.4559 23.535 67.6095 24.4544 67.0762 24.8155L67.556 25.5237C67.9241 25.2743 68.4911 24.757 68.8802 24.0833H70.0245H70.7008V25.0144H69.6642C68.9329 25.0144 68.3372 25.6097 68.3372 26.3416V27.0688H67.2751V27.9013H70.7008V29.204H71.5559V27.9013H74.0462V27.0688H71.5559V25.8513Z" fill="#7DA84C"/>
<path fill-rule="evenodd" clip-rule="evenodd" d="M47.733 24.5371H50.0993V23.8614H47.733V23.598H50.4059V22.922H47.733V22.6049H46.8168V22.922H44.1439V23.598H46.8168V23.8614H44.4505V24.5371H46.8168V24.7695H43.7915V25.4455H50.7583V24.7695H47.733V24.5371Z" fill="#7DA84C"/>
<mask id="mask0_0_214" style="mask-type:luminance" maskUnits="userSpaceOnUse" x="0" y="0" width="120" height="30">
<path fill-rule="evenodd" clip-rule="evenodd" d="M0 29.2409H120V0.759079H0V29.2409Z" fill="white"/>
</mask>
<g mask="url(#mask0_0_214)">
<path fill-rule="evenodd" clip-rule="evenodd" d="M45.446 26.6842H49.1525V26.4368H45.446V26.6842ZM45.4462 27.5513H49.1528V27.3157H45.4462V27.5513ZM44.6293 29.2039H45.4462V28.1826H49.1485C49.1308 28.4235 49.042 28.4245 48.6307 28.4245V29.2409C49.0653 29.2409 49.9689 29.2409 49.9689 28.0351V25.6203H44.6293V29.2039Z" fill="#7DA84C"/>
<path fill-rule="evenodd" clip-rule="evenodd" d="M59.1226 29.01H59.4997V23.0479H59.1226V29.01Z" fill="#4A4C48"/>
<path fill-rule="evenodd" clip-rule="evenodd" d="M83.0728 29.01H83.4496V23.0479H83.0728V29.01Z" fill="#4A4C48"/>
<path fill-rule="evenodd" clip-rule="evenodd" d="M105.36 29.01H105.737V23.0479H105.36V29.01Z" fill="#4A4C48"/>
<path fill-rule="evenodd" clip-rule="evenodd" d="M102.191 0.823029H99.8253V3.53946H96.3619V5.55817H99.8253V14.5694L96.3619 16.6336V19.0137L103.736 14.6868V12.5055L102.191 13.4358V5.55817H103.744V3.53946H102.191V0.823029Z" fill="#4A4C48"/>
<path fill-rule="evenodd" clip-rule="evenodd" d="M115.677 4.47125C115.905 4.45325 116.09 4.44401 116.229 4.44401C117.089 4.44401 117.52 4.97605 117.52 6.04013V13.1463H113.863V4.64818L115.225 4.51248L115.677 4.47125ZM109.99 17.0533C109.317 17.0533 108.843 16.9099 108.571 16.6247C108.332 16.3676 108.213 15.9782 108.213 15.4569V5.16198L111.511 4.85135V15.1468V15.1598H119.922V14.9259H119.923V5.3549C119.923 4.49749 119.565 3.77302 118.85 3.18025C118.227 2.65846 117.495 2.39806 116.651 2.39806C116.46 2.39806 116.028 2.42655 115.357 2.48478L115.323 2.48777C115.011 2.51526 114.644 2.549 114.231 2.58773L113.863 2.62197V0.759201H111.511V2.83664L108.225 3.13777L108.213 0.994359H105.809L105.784 3.36118L104.479 3.48039V5.48785L105.809 5.3674L105.783 15.6176C105.783 16.4103 105.988 17.0963 106.398 17.6741C107.045 18.589 108.242 19.0455 109.99 19.0455H120V17.0321L109.99 17.0533Z" fill="#4A4C48"/>
<path fill-rule="evenodd" clip-rule="evenodd" d="M81.7571 0.759201V2.74467H86.0626V4.42901H84.2329H81.8588V14.0572H84.2329V6.41499H89.4588C89.9969 6.41499 90.266 6.61116 90.266 7.00476V14.1949H92.6236V6.2538C92.6236 5.7465 92.4192 5.31991 92.0086 4.97655C91.5815 4.61144 90.9535 4.42901 90.1251 4.42901H88.4465V2.74467H92.752V0.759201H81.7571Z" fill="#4A4C48"/>
<path fill-rule="evenodd" clip-rule="evenodd" d="M88.754 13.6158C88.5491 13.058 88.4461 12.3138 88.4461 11.3836V7.70232H85.9984V11.2544C85.9984 11.9054 85.9434 12.4962 85.8322 13.0252C85.7042 13.6475 85.3796 14.2453 84.8578 14.8175C84.2173 15.5115 83.1877 15.9936 81.7703 16.6161V18.9921C84.3503 17.9765 86.1608 16.8817 87.2034 15.7084C88.5274 17.0317 90.3729 18.1437 92.7392 19.0454V16.6803C90.5608 15.8361 89.2318 14.9317 88.754 13.6158" fill="#4A4C48"/>
<path fill-rule="evenodd" clip-rule="evenodd" d="M75.9534 5.97849H73.5941V8.28533H69.0588V10.2723H71.2057V19.0456H73.5653V10.2723H78.282V10.8373C78.282 11.4518 78.2292 12.0096 78.1248 12.5092C78.0036 13.0969 77.697 13.661 77.2036 14.202C76.6571 14.793 75.8084 15.2219 74.6634 15.7317V17.991C76.901 17.0744 78.4874 16.092 79.4215 15.0432C80.7143 13.5178 80.5976 11.8369 80.5976 10.9588V10.2723H80.6003V8.28533H75.9534V5.97849Z" fill="#4A4C48"/>
<path fill-rule="evenodd" clip-rule="evenodd" d="M80.4259 4.39632L77.2399 0.98216C77.1074 0.840465 76.917 0.759247 76.7171 0.759247H75.5823H74.0764H72.9421C72.7419 0.759247 72.5517 0.840465 72.4193 0.98216L69.2333 4.39632L69.0588 4.58375V4.83365V6.00469V7.74951L70.2781 6.44227L73.5283 2.95889C73.6613 2.81719 73.851 2.73622 74.0516 2.73622H75.6075C75.8079 2.73622 75.9976 2.81719 76.1303 2.95889L79.3803 6.44227L80.6003 7.74951V6.00469V4.83365V4.58375L80.4259 4.39632Z" fill="#4A4C48"/>
<path fill-rule="evenodd" clip-rule="evenodd" d="M53.484 10.6922H51.4936H48.3688V19.0457H50.6129V12.7464H52.181H52.7965C53.6627 12.7464 54.3644 13.3967 54.3644 14.1986V19.0457H56.6085V13.5841C56.6085 11.987 55.2098 10.6922 53.484 10.6922" fill="#4A4C48"/>
<path fill-rule="evenodd" clip-rule="evenodd" d="M62.5109 10.6976C62.5109 11.6732 62.22 12.7125 61.6392 13.8171C61.0085 12.3899 60.6966 11.1099 60.7051 9.97685L60.7291 7.94364C60.7363 7.30989 60.1441 6.79284 59.4103 6.79284C60.2955 6.26355 60.876 5.38065 60.876 4.38054V3.98519H62.5109V10.6976ZM64.5901 3.98519H65.7983V1.99522H60.8795V0.779949C60.8795 0.779949 60.8773 0.785447 60.876 0.788195V0.758957H58.7201V4.38054C58.7201 4.97206 58.1648 5.45137 57.4803 5.45137V7.31389C57.9157 7.31389 58.3303 7.24067 58.7131 7.11172V10.5471C58.7131 11.4148 58.8413 12.2647 59.0992 13.0964C59.3064 13.7996 59.7007 14.6275 60.2817 15.5809C59.7172 16.0187 59.2774 16.3236 58.962 16.495C58.6549 16.6605 58.1608 16.8577 57.4803 17.0871V19.0126C58.443 18.7762 59.1442 18.5572 59.5845 18.3563C60.0826 18.1411 60.7756 17.7178 61.664 17.0871C62.2532 17.5604 62.764 17.9085 63.1956 18.1307C63.7854 18.446 64.6523 18.7397 65.7983 19.0126V17.0871C64.9767 16.8149 64.3826 16.567 64.0175 16.3449C63.7604 16.1802 63.4243 15.9255 63.0092 15.5809C64.0633 13.9103 64.5901 12.3219 64.5901 10.8158V3.98519Z" fill="#4A4C48"/>
<path fill-rule="evenodd" clip-rule="evenodd" d="M54.7142 4.74922C54.7142 4.89991 54.6484 5.0471 54.517 5.19029C54.385 5.33374 54.1759 5.40521 53.889 5.40521H53.5871V0.77977H51.5069V5.40521H51.216C51.2155 5.40521 51.215 5.40571 51.2143 5.40571H50.3139V0.77977H48.3689V7.23374H48.6673H50.3139H50.8327H51.884H53.9707C54.8074 7.23374 55.3881 7.13728 55.7138 6.94336C56.3103 6.58525 56.6087 6.02222 56.6087 5.25427V0.77977H54.7142V4.74922Z" fill="#4A4C48"/>
<path fill-rule="evenodd" clip-rule="evenodd" d="M48.369 9.93648H56.6088V8.13994H48.369V9.93648Z" fill="#4A4C48"/>
<path fill-rule="evenodd" clip-rule="evenodd" d="M47.4949 1.3349V0.759125H45.5529V1.23269C45.5529 1.74849 45.5084 2.2163 45.4207 2.63564C45.319 3.1287 45.0616 3.60151 44.6478 4.05533C44.1892 4.55139 43.4777 4.911 42.5168 5.33908V7.23409C44.3939 6.46514 45.7251 5.64046 46.5085 4.76081C47.5929 3.48156 47.4949 2.07186 47.4949 1.3349" fill="#4A4C48"/>
<path fill-rule="evenodd" clip-rule="evenodd" d="M47.4949 6.23949V5.66371H45.5529V6.13753C45.5529 6.65332 45.5084 7.12089 45.4207 7.54023C45.319 8.03328 45.0616 8.5066 44.6478 8.96017C44.1892 9.45598 43.4777 9.81584 42.5168 10.2437V12.1387C43.385 11.7831 44.1227 11.4147 44.7572 11.0351V19.0455H46.678V9.43324C47.5686 8.21846 47.4949 6.93196 47.4949 6.23949" fill="#4A4C48"/>
<path fill-rule="evenodd" clip-rule="evenodd" d="M9.62636 2.63139L15.8159 14.501L17.1039 12.03L11.2265 0.759125H10.0414H8.65024H7.07861H5.37802H-0.00012207L14.8401 29.2172H21.9188L8.05472 2.63139H9.62636Z" fill="#7DA84C"/>
<path fill-rule="evenodd" clip-rule="evenodd" d="M31.1424 0.759079H29.7062H28.1348H26.4785H25.5581L17.1024 16.975L18.3904 19.445L27.1585 2.63135H28.7299L19.1756 20.9527L22.7157 27.74L36.785 0.759079H31.1424Z" fill="#F0C151"/>
</g>
</svg>
