<svg width="48" height="49" viewBox="0 0 48 49" fill="none" xmlns="http://www.w3.org/2000/svg">
<mask id="mask0_0_95" style="mask-type:luminance" maskUnits="userSpaceOnUse" x="0" y="0" width="48" height="49">
<path fill-rule="evenodd" clip-rule="evenodd" d="M0 0.0512695H48V48.0513H0V0.0512695Z" fill="white"/>
</mask>
<g mask="url(#mask0_0_95)">
<path fill-rule="evenodd" clip-rule="evenodd" d="M23.6251 48.0513C22.795 47.7018 22.5474 47.0599 22.5539 46.1887C22.5806 42.6112 22.5583 39.0334 22.5684 35.4559C22.5693 35.0998 22.4932 34.9709 22.104 34.894C18.2057 34.1228 15.437 31.9081 13.8208 28.277C13.231 26.9521 12.9937 25.5394 12.9647 24.0979C12.9471 23.2086 13.5952 22.6235 14.537 22.6151C15.4555 22.6067 16.3742 22.6132 17.3538 22.6132V22.0331C17.3536 19.299 17.3423 16.5648 17.3656 13.8308C17.3688 13.442 17.4633 13.0137 17.6479 12.6758C17.9482 12.1255 18.6592 11.9167 19.2372 12.1017C19.8757 12.3061 20.2523 12.8142 20.2532 13.5083C20.2568 16.3518 20.2544 19.1951 20.2544 22.0388V22.585H27.7487C27.7487 21.9413 27.7489 21.3204 27.7487 20.6994C27.7481 18.2936 27.7435 15.8874 27.749 13.4815C27.7508 12.7696 28.2222 12.1939 28.8771 12.061C29.5378 11.9272 30.232 12.2624 30.4832 12.8995C30.5993 13.1943 30.638 13.5361 30.6393 13.8566C30.651 16.591 30.6456 19.3251 30.6455 22.0593V22.617C31.512 22.617 32.3359 22.6155 33.1595 22.6174C34.6087 22.6206 35.0769 23.1549 35.0009 24.5917C34.8509 27.4241 33.7669 29.8357 31.7837 31.8416C30.1362 33.5078 28.1241 34.5052 25.8259 34.9093C25.4803 34.9702 25.4327 35.103 25.4337 35.3889C25.4396 37.6854 25.4373 39.9823 25.4375 42.2787V45.1587C26.532 44.9879 27.5805 44.8825 28.6013 44.6542C31.5369 43.9982 34.2267 42.7657 36.6192 40.9451C40.8745 37.7076 43.6527 33.4752 44.6774 28.221C45.8986 21.9593 44.5674 16.2203 40.6636 11.1414C37.704 7.29132 33.8452 4.73354 29.1251 3.59704C22.5379 2.01141 16.4877 3.27121 11.0943 7.38829C7.23429 10.3345 4.73454 14.2195 3.53181 18.9233C2.88053 21.471 2.7452 24.0524 3.07064 26.6688C3.48962 30.0367 4.65361 33.1091 6.54999 35.916C6.755 36.2193 6.94817 36.5608 7.02795 36.9118C7.18619 37.6062 6.81131 38.2264 6.16403 38.4875C5.56238 38.7305 4.84124 38.5331 4.45891 37.9883C2.3934 35.0461 0.994451 31.8191 0.384591 28.2691C0.231888 27.3814 0.176915 26.4768 0.0740307 25.58C0.0583785 25.4445 0.0249747 25.3109 -3.05176e-05 25.1763V22.6449C0.0284105 22.5418 0.0765121 22.4399 0.0820476 22.3355C0.196384 20.1789 0.645714 18.0892 1.37583 16.0628C3.29016 10.7501 6.66471 6.60587 11.4462 3.6146C14.219 1.88008 17.2352 0.786728 20.4758 0.324227C21.1803 0.223634 21.8875 0.141746 22.5938 0.0512695H25.4062C25.5093 0.0791379 25.6112 0.125903 25.7154 0.13163C27.8893 0.250929 29.994 0.707894 32.0377 1.44507C36.7622 3.14981 40.5845 6.05251 43.5184 10.1274C45.7766 13.2639 47.1827 16.7446 47.7313 20.5704C47.8303 21.2606 47.9109 21.9533 48 22.6449V25.4577C47.971 25.5932 47.9355 25.7278 47.9139 25.8645C47.7028 27.1981 47.5984 28.5589 47.2665 29.8617C45.6852 36.0708 42.1448 40.897 36.7649 44.357C33.9311 46.1795 30.8268 47.3191 27.4828 47.7833C26.7916 47.8791 26.0985 47.9622 25.4062 48.0513H23.6251Z" fill="#231916"/>
</g>
</svg>
