<svg width="46" height="44" viewBox="0 0 46 44" fill="none" xmlns="http://www.w3.org/2000/svg">
<mask id="mask0_0_99" style="mask-type:luminance" maskUnits="userSpaceOnUse" x="0" y="0" width="46" height="44">
<path fill-rule="evenodd" clip-rule="evenodd" d="M0.841553 0.820801H45.8416V43.0512H0.841553V0.820801Z" fill="white"/>
</mask>
<g mask="url(#mask0_0_99)">
<path fill-rule="evenodd" clip-rule="evenodd" d="M3.88299 17.9375C3.24685 17.9349 2.84842 18.2599 2.7703 18.7403C2.68677 19.2544 2.96401 19.6945 3.53359 19.8672C5.21885 20.3782 6.90764 20.8779 8.59867 21.3697C9.20964 21.5474 9.75275 21.2519 9.90936 20.6915C10.0535 20.1756 9.73634 19.6593 9.1332 19.4792C7.61761 19.0263 6.09811 18.5861 4.57991 18.1413C4.30826 18.0617 4.03662 17.9824 3.88299 17.9375V17.9375ZM8.85484 15.6102C9.43412 15.612 9.8456 15.274 9.9308 14.8008C10.0184 14.3116 9.71322 13.8554 9.15091 13.6855C7.48356 13.1817 5.81472 12.6834 4.14307 12.1951C3.50302 12.0081 2.96718 12.2687 2.79547 12.815C2.62059 13.3715 2.94761 13.8913 3.61824 14.0908C5.25352 14.5776 6.89067 15.0572 8.52782 15.5373C8.66318 15.577 8.80357 15.5988 8.85484 15.6102V15.6102ZM3.81344 6.30258C3.20415 6.28244 2.71343 6.7959 2.76228 7.37294C2.80908 7.92332 3.18625 8.15824 3.66243 8.29844C5.30125 8.78058 6.93859 9.26869 8.57816 9.74859C9.20107 9.93093 9.71863 9.66954 9.89594 9.10033C10.0667 8.55238 9.75219 8.05924 9.1043 7.86515C7.70617 7.44622 6.30804 7.02802 4.90917 6.61245C4.53404 6.50095 4.15612 6.39916 3.81344 6.30258V6.30258ZM38.749 34.9127C39.769 33.1132 40.729 31.4689 41.6331 29.7945C41.9068 29.2872 42.1259 28.7085 42.1967 28.1411C42.3828 26.6528 41.4181 25.2964 39.891 24.7516C38.3826 24.2133 36.6547 24.7544 35.7808 26.0858C35.105 27.1159 34.8755 28.1911 35.5597 29.3439C36.323 30.6296 37.0408 31.9425 37.7808 33.2422C38.0704 33.7502 38.367 34.2542 38.749 34.9127V34.9127ZM8.36786 36.845C9.62299 34.8393 10.9096 32.9886 11.68 30.8652C11.8737 30.3307 11.911 29.6537 11.7766 29.1015C11.3256 27.2494 9.26502 26.1676 7.41905 26.6707C5.53468 27.1839 3.98273 29.6289 5.31971 31.5221C5.47241 31.7385 5.56563 31.9962 5.69912 32.2276C6.56832 33.7359 7.44124 35.2425 8.36786 36.845V36.845ZM29.8859 3.08384C29.6353 3.15431 29.4472 3.2026 29.2621 3.25984C25.2672 4.49763 21.2751 5.74437 17.2744 6.96277C16.8635 7.08787 16.7648 7.26816 16.7652 7.66957C16.7764 18.5017 16.7753 29.334 16.7762 40.1663V40.767C17.0324 40.6917 17.2024 40.6438 17.3712 40.5916C21.3672 39.3549 25.3611 38.1111 29.3624 36.8909C29.7804 36.7635 29.9001 36.5791 29.898 36.1488C29.8798 31.903 29.8857 10.4161 29.8859 3.91873V3.08384ZM0.894875 0.820801C1.33096 0.952615 1.71802 1.06206 2.10004 1.18641C6.39847 2.58622 10.6947 3.9933 14.9979 5.37838C15.2774 5.46825 15.6335 5.46899 15.9147 5.38267C20.7484 3.90139 25.575 2.3968 30.4072 0.910666C30.6481 0.836462 30.9496 0.806631 31.1822 0.881767C33.7063 1.69633 36.221 2.53999 38.7408 3.36779C40.9378 4.08988 43.1353 4.81085 45.3399 5.50889C45.7033 5.62374 45.842 5.76768 45.8416 6.16778C45.8295 18.2533 45.8314 30.3391 45.8312 42.4247V43.0513C45.2473 42.8721 44.745 42.7259 44.2477 42.5641C40.0151 41.1861 35.7844 39.8022 31.5488 38.4346C31.3327 38.3647 31.0564 38.3688 30.8381 38.4357C25.9721 39.9306 21.1108 41.4417 16.2447 42.9364C16.0034 43.0106 15.701 43.036 15.4668 42.9603C12.4023 41.9694 9.34575 40.954 6.28548 39.9495C4.61011 39.3996 2.93455 38.8504 1.25247 38.3222C0.943537 38.225 0.841367 38.0912 0.841553 37.7658C0.850129 25.6087 0.848824 13.4515 0.850689 1.29436C0.850689 1.15938 0.875113 1.02402 0.894875 0.820801V0.820801Z" fill="#231916"/>
</g>
<path fill-rule="evenodd" clip-rule="evenodd" d="M23.2067 10.8751C22.2842 10.8829 21.5125 11.6624 21.5164 12.5821C21.5203 13.5035 22.2918 14.2825 23.2119 14.2942C24.1244 14.3058 24.9712 13.4528 24.944 12.5493C24.9164 11.63 24.1249 10.867 23.2067 10.8751M23.2091 19.2911C22.0383 17.1986 20.9006 15.266 19.8703 13.2776C19.4193 12.4067 19.7514 11.4989 20.2361 10.6938C20.9866 9.4484 22.4695 8.81431 23.9191 9.09342C25.3734 9.37364 26.4713 10.4589 26.701 11.9053C26.7577 12.2626 26.7515 12.6705 26.6361 13.0078C25.8695 15.2488 24.5215 17.1733 23.2091 19.2911" fill="#231916"/>
<path fill-rule="evenodd" clip-rule="evenodd" d="M20.2193 23.9983C20.2053 23.3408 20.4437 23.0268 20.8804 22.8946C22.6358 22.363 24.3939 21.8406 26.1552 21.3298C26.6361 21.1901 27.16 21.5116 27.2884 21.9786C27.4314 22.4982 27.1892 23.0012 26.6532 23.17C25.5497 23.5173 24.4359 23.8324 23.3256 24.1585C22.6766 24.349 22.0319 24.5584 21.3748 24.7165C20.7381 24.8694 20.2254 24.4484 20.2193 23.9983" fill="#231916"/>
<path fill-rule="evenodd" clip-rule="evenodd" d="M20.1042 29.4844C20.3261 29.2405 20.5047 28.8626 20.7771 28.7744C22.5854 28.1891 24.4105 27.655 26.2374 27.1301C26.6782 27.0036 27.1344 27.3285 27.2658 27.7734C27.4062 28.2484 27.2039 28.7692 26.7466 28.9161C25.3932 29.3509 24.0288 29.7517 22.6678 30.1626C22.2423 30.2909 21.8172 30.4225 21.3864 30.5296C20.7448 30.689 20.2099 30.2495 20.1042 29.4844" fill="#231916"/>
<path fill-rule="evenodd" clip-rule="evenodd" d="M8.32938 31.7903C7.40089 31.7832 6.6926 31.0567 6.69614 30.1151C6.70006 29.1619 7.43911 28.4426 8.40134 28.4552C9.311 28.4674 10.0504 29.2217 10.0452 30.1317C10.04 31.0729 9.29011 31.7976 8.32938 31.7903" fill="#231916"/>
<path fill-rule="evenodd" clip-rule="evenodd" d="M40.3725 28.159C40.3492 29.1056 39.571 29.8293 38.6164 29.7924C37.7264 29.7579 37.0225 29.0036 37.0348 28.0969C37.0473 27.15 37.8242 26.3997 38.7587 26.4322C39.6691 26.4637 40.3949 27.2406 40.3725 28.159" fill="#231916"/>
</svg>
