<svg width="52" height="44" viewBox="0 0 52 44" fill="none" xmlns="http://www.w3.org/2000/svg">
<path fill-rule="evenodd" clip-rule="evenodd" d="M4.48815 29.3229C4.51159 29.3649 4.53522 29.4068 4.55884 29.4488C7.95609 29.2766 11.3541 29.1123 14.7506 28.9246C15.2718 28.8959 15.708 28.9673 16.1154 29.3273C17.1551 30.2461 18.2196 31.1365 19.277 32.0349C19.7623 32.4473 20.2542 32.852 20.7832 33.2938C23.4168 28.9854 26.0162 24.7333 28.6331 20.4525C27.4441 19.7423 26.2629 19.1495 25.2117 18.3796C23.9725 17.4717 22.7631 17.314 21.3046 17.7986C19.7813 18.3046 18.181 18.5783 16.5848 18.9607V21.476C16.1918 21.5181 15.8071 21.5592 15.3899 21.604C15.3393 21.1002 15.295 20.6603 15.2406 20.1212C11.6 23.2368 8.04399 26.2799 4.48815 29.3229M23.1502 33.6595C24.2631 33.6595 25.3415 33.6922 26.4171 33.6525C28.6027 33.5716 30.786 33.4267 32.9718 33.3677C33.4079 33.356 33.9245 33.5067 34.2796 33.7584C37.258 35.8676 40.2073 38.0181 43.1659 40.1555C43.2868 40.2428 43.4154 40.3192 43.6073 40.4443C43.8598 39.5898 44.0994 38.7798 44.3385 37.9694C44.3871 37.8055 44.416 37.6328 44.4863 37.479C45.2042 35.9109 45.0319 34.3511 44.4568 32.792C44.4123 32.6711 44.3894 32.5424 44.346 32.3774C44.7462 32.2525 45.1163 32.1371 45.5113 32.0139C45.614 32.2809 45.6992 32.5021 45.8347 32.8546C46.2242 31.5601 46.58 30.395 46.9249 29.2268C47.4459 27.4605 47.9478 25.6884 48.4857 23.9272C48.5981 23.5586 48.5205 23.3969 48.1846 23.2218C46.1808 22.177 44.1898 21.1077 42.1188 20.0064C42.5869 19.4072 43.0246 18.847 43.4936 18.2465C44.1428 18.5891 44.7773 18.9221 45.41 19.2583C47.0375 20.1234 48.6657 20.9867 50.2903 21.8571C50.986 22.2298 51.1629 22.6477 50.938 23.413C49.0794 29.7337 47.2181 36.0537 45.3531 42.3724C45.0461 43.4126 44.2753 43.667 43.3863 43.0264C40.0855 40.6479 36.7916 38.2595 33.4804 35.8951C33.2277 35.7144 32.8579 35.5994 32.5484 35.6111C28.8999 35.7484 25.2518 35.9032 21.6053 36.0867C20.9263 36.1207 20.4095 35.9266 19.905 35.4845C18.3319 34.1059 16.7353 32.7539 15.1276 31.4161C14.9361 31.2568 14.6151 31.1707 14.3601 31.1825C10.0478 31.3806 5.73618 31.596 1.42512 31.8188C0.908144 31.8456 0.478338 31.7324 0.195585 31.2771C-0.113356 30.7794 0.00970787 30.2516 0.566606 29.7702C1.93294 28.5888 3.30843 27.418 4.6819 26.2447C8.19544 23.2438 11.7075 20.2408 15.2302 17.2503C15.4662 17.0499 15.7702 16.8842 16.0695 16.8108C18.3562 16.2493 20.6521 15.7263 22.9385 15.1639C23.4949 15.0271 23.9595 15.0906 24.453 15.391C26.2224 16.4678 28.0172 17.5021 29.7899 18.5738C30.1643 18.7999 30.4937 18.847 30.9065 18.6906C31.509 18.4624 32.1393 18.309 32.749 18.098C33.0418 17.9965 33.241 18.026 33.433 18.2914C33.7965 18.7948 34.1909 19.2759 34.6204 19.8273C33.5216 20.169 32.5149 20.4981 31.4976 20.7904C31.0916 20.9072 30.8021 21.0978 30.5838 21.4756C29.9683 22.5413 29.3142 23.5848 28.6249 24.7196C28.945 24.7026 29.1765 24.6899 29.4966 24.6725C29.5471 25.056 29.5975 25.4397 29.6568 25.8882C29.095 25.9691 28.573 26.0279 28.0588 26.1271C27.894 26.159 27.6878 26.2592 27.605 26.3925C26.1068 28.8151 24.6246 31.2476 23.1502 33.6595" fill="#231916"/>
<path fill-rule="evenodd" clip-rule="evenodd" d="M38.4753 18.1861C38.5165 18.1365 38.5774 18.068 38.6335 17.9956C39.8897 16.3733 41.1533 14.7564 42.3984 13.1257C43.3101 11.9315 43.9928 10.6358 44.1316 9.09936C44.3469 6.71208 43.4674 4.82547 41.4438 3.58056C39.4658 2.36347 37.3768 2.36366 35.4049 3.60949C33.3511 4.90733 32.4871 6.84009 32.7709 9.26198C32.964 10.9096 33.7877 12.2547 34.8066 13.5176C36.0455 15.0537 37.247 16.6196 38.4753 18.1861M38.4102 0.967291C43.8805 0.96253 47.4516 6.46797 45.258 11.6201C44.8332 12.6188 44.1907 13.5412 43.5514 14.4283C42.386 16.0455 41.135 17.6003 39.9493 19.203C39.6484 19.6092 39.4997 20.1278 39.2014 20.5368C39.0349 20.7647 38.7054 20.9982 38.4478 21.0001C38.1898 21.0021 37.7979 20.7798 37.6916 20.5505C36.8414 18.7157 35.5382 17.2003 34.2995 15.6415C33.2716 14.3482 32.2036 13.0989 31.5637 11.5368C29.6951 6.97469 32.2792 2.07926 37.1098 1.10739C37.5354 1.02168 37.9764 1.01234 38.4102 0.967291" fill="#231916"/>
<path fill-rule="evenodd" clip-rule="evenodd" d="M34.8897 25.7858H31.8201V24.5903H34.9741C34.9421 25.0439 34.9159 25.415 34.8897 25.7858" fill="#231916"/>
<path fill-rule="evenodd" clip-rule="evenodd" d="M41.5108 28.278C41.7677 28.0014 42.0234 27.7264 42.3642 27.3594C43.0993 28.1869 43.8036 28.9797 44.5368 29.8053C44.1189 30.1043 43.7983 30.3338 43.499 30.5479C42.8405 29.7957 42.195 29.0592 41.5108 28.278" fill="#231916"/>
<path fill-rule="evenodd" clip-rule="evenodd" d="M40.3151 26.0525C40.1186 26.498 39.9686 26.8373 39.8075 27.2029C38.8396 26.8527 37.9062 26.515 36.9318 26.1625C37.042 25.7829 37.1501 25.4104 37.2823 24.9546C38.3069 25.3254 39.2859 25.68 40.3151 26.0525" fill="#231916"/>
<path fill-rule="evenodd" clip-rule="evenodd" d="M19.191 25.2319C19.0727 25.4753 18.91 25.8106 18.7326 26.1763C17.5853 25.7876 16.7467 25.0843 16.1358 24.0147C16.4526 23.7896 16.7698 23.5644 17.0154 23.3896C17.7276 23.9927 18.4185 24.578 19.191 25.2319" fill="#231916"/>
<path fill-rule="evenodd" clip-rule="evenodd" d="M24.221 25.4604C24.2605 25.8146 24.3017 26.1847 24.355 26.6616H21.1836V25.4604H24.221Z" fill="#231916"/>
<path fill-rule="evenodd" clip-rule="evenodd" d="M38.4393 10.9838C37.031 10.9748 35.8359 9.78376 35.8691 8.42201C35.9037 6.99744 37.0596 5.84756 38.4501 5.85452C39.8787 5.86148 41.0304 7.04963 41.0121 8.49727C40.9945 9.86196 39.8247 10.9926 38.4393 10.9838" fill="#231916"/>
</svg>
