<svg preserveAspectRatio="none" width="100%" height="100%" overflow="visible" style="display: block;" viewBox="0 0 7 3" fill="none" xmlns="http://www.w3.org/2000/svg">
<path id="Fill 3" fill-rule="evenodd" clip-rule="evenodd" d="M6.20393 2.47692C6.06318 2.47692 5.96107 2.47697 5.85901 2.47692C4.50207 2.47682 3.14508 2.48048 1.78824 2.47058C1.65586 2.4696 1.50263 2.41359 1.39577 2.33401C0.928469 1.98574 0.47473 1.61931 0 1.24685C0.0496133 1.19466 0.0835999 1.14809 0.127489 1.11441C0.555957 0.784757 0.981487 0.450976 1.41924 0.133956C1.52156 0.0598975 1.66648 0.00904647 1.79216 0.00832445C3.17484 2.11867e-05 4.55751 0.0074477 5.94018 2.11868e-05C6.13539 -0.00106185 6.21223 0.0388041 6.20862 0.251904C6.19635 0.980115 6.20393 1.70864 6.20393 2.47692" fill="var(--fill-0, #7DA84C)"/>
</svg>
