<svg preserveAspectRatio="none" width="100%" height="100%" overflow="visible" style="display: block;" viewBox="0 0 20 23" fill="none" xmlns="http://www.w3.org/2000/svg">
<path id="Fill 19" fill-rule="evenodd" clip-rule="evenodd" d="M13.7174 4.54726C13.996 4.52522 14.2234 4.51389 14.3933 4.51389C15.4467 4.51389 15.9748 5.16564 15.9748 6.46914V15.1743H11.4955V4.764L13.1639 4.59777L13.7174 4.54726ZM6.75047 19.9603C5.92576 19.9603 5.34595 19.7846 5.01196 19.4353C4.719 19.1203 4.57328 18.6433 4.57328 18.0047V5.3934L8.61419 5.01288V17.6248V17.6407H18.9176V17.3542H18.9188V5.62973C18.9188 4.5794 18.4805 3.69193 17.6037 2.96579C16.8405 2.32659 15.9436 2.0076 14.9098 2.0076C14.6762 2.0076 14.1472 2.0425 13.3252 2.11383L13.283 2.1175C12.9009 2.15118 12.4512 2.1925 11.9458 2.23995L11.4955 2.28189V0H8.61419V2.54486L4.58858 2.91375L4.57328 0.288068H1.62922L1.59861 3.18743L0 3.33345V5.79259L1.62922 5.64504L1.59739 18.2016C1.59739 19.1726 1.84841 20.0129 2.34985 20.7207C3.14273 21.8415 4.6094 22.4008 6.75047 22.4008H19.0128V19.9343L6.75047 19.9603Z" fill="var(--fill-0, white)"/>
</svg>
