<svg preserveAspectRatio="none" width="100%" height="100%" overflow="visible" style="display: block;" viewBox="0 0 59 52" fill="none" xmlns="http://www.w3.org/2000/svg">
<g id="&#226;&#128;&#156;">
<path id="&#229;&#189;&#162;&#231;&#138;&#182;" fill-rule="evenodd" clip-rule="evenodd" d="M22.2 29.4V51.6H0V29.4C0 25.4 0.433333 21.6333 1.3 18.1C2.16667 14.5667 3.5 11.4667 5.3 8.8C7.1 6.13333 9.4 4 12.2 2.4C15 0.8 18.2667 0 22 0V10C19.7333 10 17.8667 10.5667 16.4 11.7C14.9333 12.8333 13.7333 14.3333 12.8 16.2C11.8667 18.0667 11.2333 20.1667 10.9 22.5C10.5667 24.8333 10.4 27.1333 10.4 29.4H22.2ZM58.8 29.4V51.6H36.6V29.4C36.6 25.4 37.0333 21.6333 37.9 18.1C38.7667 14.5667 40.1 11.4667 41.9 8.8C43.7 6.13333 46 4 48.8 2.4C51.6 0.8 54.8667 0 58.6 0V10C56.3333 10 54.4667 10.5667 53 11.7C51.5333 12.8333 50.3333 14.3333 49.4 16.2C48.4667 18.0667 47.8333 20.1667 47.5 22.5C47.1667 24.8333 47 27.1333 47 29.4H58.8Z" fill="var(--fill-0, #7DA84C)"/>
</g>
</svg>
