<svg preserveAspectRatio="none" width="100%" height="100%" overflow="visible" style="display: block;" viewBox="0 0 9 9" fill="none" xmlns="http://www.w3.org/2000/svg">
<path id="Fill 9" fill-rule="evenodd" clip-rule="evenodd" d="M2.56966 5.46779V4.57695C2.56966 4.24541 2.83936 3.97632 3.17028 3.97632H4.44011V5.46779H2.56966ZM5.48769 3.97632H7.94499V2.95109H5.48769V1.81045H8.29092V0.812775H3.61172H2.62843C2.69731 0.551034 2.73711 0.279803 2.73711 0H1.69014C1.69014 1.1388 0.653282 2.26506 0 2.70741L0.58777 3.57499C1.0387 3.26947 1.73331 2.63578 2.20995 1.81045H3.61172H4.44011V2.95109H3.17028C2.27455 2.95109 1.54473 3.6803 1.54473 4.57695V5.46779H0.24368V6.48751H4.44011V8.08337H5.48769V6.48751H8.53827V5.46779H5.48769V3.97632Z" fill="var(--fill-0, white)"/>
</svg>
