<svg preserveAspectRatio="none" width="100%" height="100%" overflow="visible" style="display: block;" viewBox="0 0 22 16" fill="none" xmlns="http://www.w3.org/2000/svg">
<path id="Fill 1" fill-rule="evenodd" clip-rule="evenodd" d="M8.588 10.7551C10.4652 9.67592 12.3193 8.61017 14.1992 7.52956C12.3174 6.44346 10.4618 5.37248 8.588 4.29094V10.7551ZM10.8741 15.066C9.26459 15.0291 7.76215 15.0086 6.2609 14.9549C5.32287 14.9214 4.38586 14.8492 3.45019 14.7719C2.94437 14.7301 2.43298 14.6793 1.96177 14.4647C1.04932 14.0493 0.526532 13.3315 0.34183 12.3538C0.170551 11.4465 0.0814918 10.5299 0.0508488 9.60898C0.0180111 8.62604 -0.00925526 7.64183 0.00298504 6.65872C0.0181799 5.43174 0.0939854 4.20695 0.287889 2.99237C0.379649 2.41767 0.527714 1.86728 0.900241 1.40088C1.3858 0.793088 2.01512 0.450444 2.78491 0.34543C3.83538 0.202092 4.89185 0.145027 5.94966 0.101553C7.96045 0.0188251 9.97216 -0.0205127 11.9844 0.0106368C13.2382 0.0300524 14.4926 0.0571499 15.7449 0.118014C16.6819 0.163514 17.617 0.256878 18.5508 0.350411C19.321 0.427567 19.9963 0.716438 20.5077 1.32693C20.854 1.74023 21.05 2.222 21.125 2.74596C21.2321 3.49456 21.3279 4.24578 21.394 4.99894C21.4921 6.11661 21.5015 7.23858 21.4728 8.35996C21.4416 9.58247 21.3807 10.8035 21.182 12.0128C21.0942 12.5473 20.9834 13.0756 20.6632 13.5318C20.1813 14.2184 19.5127 14.5855 18.6899 14.6993C17.644 14.844 16.5921 14.9088 15.5384 14.9413C13.9483 14.9903 12.3578 15.027 10.8741 15.066V15.066Z" fill="var(--fill-0, #FEFEFE)"/>
</svg>
