<svg preserveAspectRatio="none" width="100%" height="100%" overflow="visible" style="display: block;" viewBox="0 0 6 14" fill="none" xmlns="http://www.w3.org/2000/svg">
<path id="Fill 1" fill-rule="evenodd" clip-rule="evenodd" d="M2.24699 0H3.29206V11.4916C3.74828 11.5958 4.18072 11.6657 4.59263 11.799C4.85493 11.8839 5.11115 12.0326 5.32652 12.2067C5.63523 12.4562 5.6209 12.7761 5.32724 13.0448C4.99201 13.3515 4.57097 13.4769 4.14049 13.5687C3.08087 13.7948 2.02409 13.7875 0.990049 13.4481C0.704953 13.3544 0.42816 13.1893 0.193452 13.0001C-0.0726653 12.7857 -0.0547179 12.4805 0.188965 12.2355C0.53765 11.8849 0.994432 11.7563 1.4572 11.6529C1.70753 11.5969 1.96406 11.5682 2.24699 11.5224V0Z" fill="var(--fill-0, #7DA84C)"/>
</svg>
