<svg preserveAspectRatio="none" width="100%" height="100%" overflow="visible" style="display: block;" viewBox="0 0 35 36" fill="none" xmlns="http://www.w3.org/2000/svg">
<path id="&#230;&#152;&#159;&#229;&#189;&#162;" d="M20.2441 1.50098C21.7199 0.503888 23.74 1.15305 24.3584 2.82324L24.4326 3.02539C25.1038 4.83793 26.7826 6.08304 28.7119 6.19922C30.5085 6.30724 31.7655 8.02051 31.3291 9.7666L31.25 10.085C30.7798 11.966 31.4107 13.9518 32.8809 15.2158C34.3316 16.4633 34.3317 18.7097 32.8809 19.957C31.4109 21.2211 30.7798 23.206 31.25 25.0869L31.3291 25.4053C31.7656 27.1514 30.5085 28.8646 28.7119 28.9727C26.7826 29.0888 25.1038 30.3339 24.4326 32.1465L24.3584 32.3486C23.7399 34.0189 21.7199 34.6681 20.2441 33.6709C18.6384 32.5858 16.5335 32.5858 14.9277 33.6709C13.452 34.668 11.4329 34.0188 10.8145 32.3486L10.7393 32.1465C10.0681 30.3339 8.38931 29.0888 6.45996 28.9727C4.66334 28.8646 3.40628 27.1514 3.84277 25.4053L3.92188 25.0869C4.39208 23.206 3.76107 21.2211 2.29102 19.957C0.840244 18.7097 0.840393 16.4633 2.29102 15.2158C3.7612 13.9518 4.3921 11.966 3.92188 10.085L3.84277 9.7666C3.40638 8.02052 4.66339 6.30724 6.45996 6.19922C8.38931 6.0831 10.0681 4.83798 10.7393 3.02539L10.8145 2.82324C11.4329 1.15309 13.452 0.503992 14.9277 1.50098C16.5335 2.58603 18.6384 2.58603 20.2441 1.50098Z" stroke="var(--stroke-0, #7DA84C)" stroke-width="2"/>
</svg>
