<svg preserveAspectRatio="none" width="100%" height="100%" overflow="visible" style="display: block;" viewBox="0 0 23 23" fill="none" xmlns="http://www.w3.org/2000/svg">
<path id="Fill 7" fill-rule="evenodd" clip-rule="evenodd" d="M6.54108 9.38346C6.79749 11.9578 7.80152 14.1176 9.55335 15.9541C8.7713 16.471 7.94669 16.8418 7.05892 17.0276C6.31823 17.1825 5.55573 17.2294 4.80724 17.3517C4.22607 17.4467 3.88834 17.8744 3.95028 18.3739C4.01343 18.8814 4.38335 19.1714 4.97923 19.1721C7.00615 19.1746 8.87805 18.625 10.5799 17.5348C10.9391 17.3047 11.1681 17.2875 11.5367 17.5259C13.2608 18.6414 15.1644 19.1864 17.2214 19.1719C17.7379 19.1682 18.0649 18.9001 18.1649 18.4279C18.2445 18.0531 18.0344 17.5993 17.6668 17.4484C17.4558 17.3619 17.216 17.338 16.9863 17.3076C16.4653 17.2384 15.9374 17.2116 15.4218 17.1154C14.3993 16.9249 13.452 16.5345 12.5523 15.9541C14.309 14.1247 15.2933 11.9708 15.5739 9.46132C16.104 9.46132 16.6039 9.5025 17.0929 9.44696C17.4216 9.40942 17.7844 9.30059 18.0413 9.10456C18.3353 8.88032 18.3671 8.48861 18.2204 8.13426C18.0524 7.72853 17.7315 7.53146 17.2892 7.53146C15.7075 7.53181 14.1254 7.51814 12.5436 7.53855C12.1616 7.5434 12.0386 7.44893 12.0488 7.05289C12.0755 5.99903 12.0713 4.94361 12.0473 3.88957C12.0317 3.20251 11.4443 2.79505 10.8019 2.98156C10.3849 3.10268 10.1364 3.49716 10.1307 4.09771C10.1215 5.04984 10.1292 6.00197 10.1269 6.95392C10.1266 7.10877 10.1112 7.26328 10.1008 7.44997H9.58086C8.05759 7.45014 6.53381 7.43301 5.01124 7.46537C4.71918 7.4716 4.38421 7.61451 4.15306 7.79947C3.8546 8.03806 3.85581 8.43064 3.98748 8.77392C4.15444 9.20941 4.53785 9.36478 4.97161 9.37948C5.48098 9.39679 5.99139 9.38346 6.54108 9.38346V9.38346ZM22.1398 17.296C20.7174 17.1842 19.4964 17.5555 18.5194 18.5298C17.541 19.5053 17.188 20.7336 17.2865 22.138H16.7594C12.0571 22.138 7.35479 22.1385 2.65246 22.1378C0.974513 22.1374 0.00144999 21.1711 0.00110395 19.5008C-0.000280204 13.8903 -0.000453224 8.27977 0.00110395 2.66909C0.00162301 0.979551 0.984548 0.00112463 2.68014 0.000778589C8.27594 -0.00025953 13.8719 -0.00025953 19.4677 0.000778589C21.1642 0.00112463 22.139 0.976091 22.1393 2.67151C22.1405 7.37384 22.1398 12.0762 22.1398 16.7783V17.296Z" fill="var(--fill-0, #231916)"/>
</svg>
