<svg preserveAspectRatio="none" width="100%" height="100%" overflow="visible" style="display: block;" viewBox="0 0 16 16" fill="none" xmlns="http://www.w3.org/2000/svg">
<path id="Fill 3" fill-rule="evenodd" clip-rule="evenodd" d="M0 0.861521C0.196204 0.217196 0.654533 -0.00824861 1.29869 0.000229359C2.48491 0.0161472 3.67165 -0.00132782 4.85805 0.0102645C5.08643 0.0125138 5.32918 0.0483288 5.53923 0.132935C5.90897 0.281905 6.11642 0.730199 6.04133 1.11344C5.94842 1.58751 5.59407 1.89895 5.0738 1.90725C4.13655 1.92213 3.19879 1.91192 2.26137 1.91227H1.84404C1.979 2.74847 2.03194 3.56668 2.24787 4.33956C3.67892 9.46233 7.01318 12.6277 12.1846 13.8422C12.8192 13.9913 13.489 13.9899 14.1423 14.0586C14.3605 14.0816 14.5804 14.0942 14.7958 14.132C15.3008 14.2204 15.6675 14.6579 15.6219 15.1019C15.5699 15.6115 15.1801 15.9741 14.639 15.9751C13.3152 15.9777 12.0115 15.7992 10.7437 15.4234C6.6315 14.2045 3.57857 11.6844 1.60891 7.87643C0.684812 6.09 0.167829 4.18142 0.0756096 2.16488C0.070592 2.05172 0.026126 1.94047 0 1.82853V0.861521Z" fill="var(--fill-0, #231916)"/>
</svg>
