<svg preserveAspectRatio="none" width="100%" height="100%" overflow="visible" style="display: block;" viewBox="0 0 11 23" fill="none" xmlns="http://www.w3.org/2000/svg">
<path id="Fill 25" fill-rule="evenodd" clip-rule="evenodd" d="M6.1624 12.1748C6.1624 13.3699 5.80606 14.6431 5.09462 15.9962C4.32194 14.2479 3.93989 12.6799 3.9503 11.2919L3.97969 8.80124C3.98857 8.02489 3.26304 7.39151 2.36424 7.39151C3.44856 6.74313 4.1597 5.66157 4.1597 4.43644V3.95214H6.1624V12.1748ZM8.7094 3.95214H10.1895V1.51443H4.16398V0.0257149C4.16398 0.0257149 4.16123 0.0324498 4.1597 0.0358172V0H1.51871V4.43644C1.51871 5.16105 0.83849 5.7482 0 5.7482V8.02979C0.533279 8.02979 1.04115 7.9401 1.51014 7.78213V11.9905C1.51014 13.0534 1.66718 14.0945 1.98311 15.1133C2.23689 15.9748 2.71997 16.989 3.43172 18.1569C2.74017 18.6932 2.20138 19.0667 1.81505 19.2767C1.43881 19.4794 0.833592 19.7209 0 20.0019V22.3607C1.17921 22.0711 2.03821 21.8029 2.57762 21.5568C3.18773 21.2932 4.03663 20.7746 5.12492 20.0019C5.84678 20.5817 6.47251 21.0082 7.0012 21.2803C7.72366 21.6667 8.78563 22.0264 10.1895 22.3607V20.0019C9.18298 19.6686 8.45531 19.3649 8.00806 19.0927C7.69305 18.891 7.2813 18.579 6.77282 18.1569C8.06408 16.1104 8.7094 14.1646 8.7094 12.3196V3.95214Z" fill="var(--fill-0, white)"/>
</svg>
