<svg preserveAspectRatio="none" width="100%" height="100%" overflow="visible" style="display: block;" viewBox="0 0 6 5" fill="none" xmlns="http://www.w3.org/2000/svg">
<path id="Fill 7" fill-rule="evenodd" clip-rule="evenodd" d="M0.250108 4.71502C1.05492 4.51389 2.02628 3.87622 2.87854 3.07753C3.43723 3.61876 3.93102 4.16521 4.2849 4.62563L5.10166 3.99898C4.72297 3.5058 4.19245 2.92048 3.59121 2.33883C4.16888 1.67514 4.62869 0.96431 4.84237 0.327559L3.86642 0C3.69591 0.50787 3.316 1.09166 2.83844 1.64606C2.15791 1.05309 1.4333 0.508482 0.756754 0.124901L0.249496 1.01972C0.856858 1.36442 1.50738 1.85239 2.12332 2.38537C1.41585 3.03834 0.627873 3.55968 0 3.71673L0.250108 4.71502Z" fill="var(--fill-0, white)"/>
</svg>
