<svg preserveAspectRatio="none" width="100%" height="100%" overflow="visible" style="display: block;" viewBox="0 0 24 20" fill="none" xmlns="http://www.w3.org/2000/svg">
<path id="Fill 3" fill-rule="evenodd" clip-rule="evenodd" d="M21.3717 10.7561C20.0176 10.7561 18.7192 10.7495 17.4213 10.7706C17.3321 10.772 17.1711 10.981 17.1702 11.0944C17.1541 12.9648 17.1609 14.8356 17.1559 16.7063C17.1552 16.984 17.2733 17.0936 17.5464 17.0909C18.4813 17.082 19.4169 17.1027 20.3512 17.0734C20.9619 17.0541 21.3568 16.6645 21.3644 16.0505C21.3854 14.3147 21.3717 12.5784 21.3717 10.7561V10.7561ZM2.15158 10.7559C2.15158 12.58 2.138 14.3167 2.15891 16.0529C2.16624 16.6655 2.56158 17.0548 3.17354 17.0738C4.10775 17.1027 5.04356 17.082 5.97848 17.0909C6.25247 17.0936 6.36828 16.9815 6.36757 16.7049C6.36256 14.8341 6.36935 12.9634 6.35327 11.0928C6.3522 10.9797 6.19027 10.7718 6.10055 10.7704C4.80264 10.7493 3.50436 10.7559 2.15158 10.7559V10.7559ZM21.3695 8.51631C21.3695 6.68776 21.3858 4.93623 21.3606 3.18507C21.3518 2.58204 20.9388 2.2094 20.3176 2.19242C19.3998 2.1674 18.4806 2.1892 17.5625 2.17776C17.257 2.17383 17.1477 2.30466 17.1544 2.59813C17.1655 3.0823 17.1559 3.56683 17.1559 4.05136C17.1559 5.3877 17.1543 6.72386 17.1586 8.0602C17.1593 8.26734 17.1096 8.51828 17.4554 8.51756C18.7387 8.51417 20.0216 8.51631 21.3695 8.51631V8.51631ZM2.14836 8.51703C3.49793 8.51703 4.766 8.5122 6.03406 8.5206C6.31484 8.52257 6.36721 8.3753 6.36703 8.1442C6.36471 6.29009 6.36221 4.4358 6.36935 2.58169C6.37025 2.27267 6.23388 2.17491 5.94452 2.17794C5.05947 2.18706 4.17387 2.16776 3.28918 2.18688C2.53942 2.20314 2.15998 2.59813 2.1514 3.35057C2.14032 4.31945 2.14836 5.28833 2.14836 6.2572C2.14819 6.98855 2.14836 7.71973 2.14836 8.51703V8.51703ZM14.9225 10.7824H8.59683C8.58789 10.9565 8.57377 11.103 8.57359 11.2498C8.57216 13.0211 8.58575 14.7927 8.56305 16.5637C8.55769 16.9858 8.68744 17.1034 9.09941 17.0988C10.8702 17.0796 12.6412 17.0916 14.4124 17.0891C14.5742 17.0889 14.7359 17.0664 14.9225 17.0525V10.7824ZM8.61166 8.47074H14.9272V2.23692H8.61166V8.47074ZM11.7204 19.2696C8.96161 19.2696 6.20296 19.271 3.44413 19.2692C1.33248 19.2678 0.00435687 17.9427 0.00274833 15.8271C-0.000826203 11.6966 -0.00100493 7.56584 0.00274833 3.43529C0.0045356 1.32148 1.33283 0.00158718 3.45075 0.001051C9.00182 -0.000200086 14.5527 -0.00055754 20.1036 0.00122973C22.1829 0.00212336 23.5178 1.33257 23.5202 3.41688C23.5253 7.56423 23.5255 11.7116 23.5202 15.8588C23.5177 17.9377 22.1774 19.2674 20.0968 19.2691C17.3048 19.2714 14.5125 19.2696 11.7204 19.2696V19.2696Z" fill="var(--fill-0, #231916)"/>
</svg>
