<svg preserveAspectRatio="none" width="100%" height="100%" overflow="visible" style="display: block;" viewBox="0 0 15 14" fill="none" xmlns="http://www.w3.org/2000/svg">
<path id="Fill 3" fill-rule="evenodd" clip-rule="evenodd" d="M10.9436 4.23494C10.9509 3.67675 10.503 3.22135 9.94586 3.2205C9.38999 3.21957 8.92964 3.67551 8.9318 4.22472C8.9339 4.74875 9.38999 5.21306 9.91674 5.22731C10.4621 5.24203 10.9365 4.78361 10.9436 4.23494M5.96438 4.20977C5.96004 3.6491 5.50812 3.21066 4.94466 3.22073C4.40676 3.23026 3.96229 3.67598 3.95663 4.21147C3.9509 4.75355 4.42117 5.22693 4.96628 5.2277C5.51479 5.22855 5.96856 4.76564 5.96438 4.20977M7.47683 0C9.31199 0.0261823 11.0101 0.508695 12.49 1.63655C15.6711 4.06065 15.7185 8.22216 12.5818 10.6978C12.1842 11.0115 12.0465 11.3101 12.2232 11.7837C12.3395 12.0959 12.3931 12.431 12.4868 12.7524C12.5269 12.8903 12.5304 13.0096 12.4089 13.0991C12.2972 13.1815 12.1892 13.1265 12.0856 13.067C11.6722 12.8291 11.2428 12.6148 10.8492 12.3479C10.4307 12.0642 10.0274 12.0383 9.5364 12.1552C7.17016 12.718 4.91205 12.4215 2.85783 11.0863C-1.03659 8.55502 -0.929306 3.60727 3.04831 1.20198C4.40777 0.379875 5.89048 0.0126264 7.47683 0" fill="var(--fill-0, #FEFEFE)"/>
</svg>
