<svg preserveAspectRatio="none" width="100%" height="100%" overflow="visible" style="display: block;" viewBox="0 0 48 48" fill="none" xmlns="http://www.w3.org/2000/svg">
<path id="Fill 1" fill-rule="evenodd" clip-rule="evenodd" d="M23.6251 48C22.795 47.6505 22.5474 47.0086 22.5539 46.1374C22.5806 42.56 22.5583 38.9821 22.5684 35.4047C22.5694 35.0485 22.4932 34.9197 22.104 34.8427C18.2057 34.0716 15.437 31.8568 13.8208 28.2257C13.231 26.9008 12.9937 25.4881 12.9647 24.0466C12.9472 23.1573 13.5952 22.5722 14.537 22.5638C15.4555 22.5554 16.3742 22.5619 17.3538 22.5619V21.9819C17.3536 19.2477 17.3423 16.5135 17.3656 13.7796C17.3689 13.3908 17.4634 12.9624 17.6479 12.6246C17.9482 12.0743 18.6592 11.8654 19.2372 12.0504C19.8757 12.2548 20.2523 12.763 20.2532 13.457C20.2569 16.3005 20.2544 19.1439 20.2544 21.9876V22.5337H27.7487C27.7487 21.89 27.7489 21.2691 27.7487 20.6482C27.7481 18.2423 27.7435 15.8361 27.7491 13.4303C27.7508 12.7183 28.2223 12.1426 28.8772 12.0097C29.5378 11.8759 30.232 12.2111 30.4832 12.8483C30.5993 13.143 30.638 13.4849 30.6394 13.8053C30.651 16.5397 30.6457 19.2738 30.6455 22.008V22.5658C31.5121 22.5658 32.3359 22.5642 33.1596 22.5661C34.6087 22.5694 35.0769 23.1036 35.001 24.5404C34.8509 27.3729 33.7669 29.7844 31.7837 31.7904C30.1362 33.4566 28.1242 34.4539 25.826 34.858C25.4803 34.9189 25.4328 35.0517 25.4337 35.3377C25.4396 37.6341 25.4373 39.931 25.4375 42.2275V45.1075C26.532 44.9366 27.5805 44.8313 28.6014 44.603C31.5369 43.9469 34.2268 42.7144 36.6192 40.8938C40.8745 37.6563 43.6528 33.4239 44.6774 28.1698C45.8986 21.908 44.5675 16.169 40.6636 11.0901C37.704 7.24005 33.8452 4.68227 29.1251 3.54577C22.5379 1.96014 16.4878 3.21994 11.0943 7.33702C7.23433 10.2832 4.73457 14.1682 3.53184 18.872C2.88056 21.4197 2.74523 24.0012 3.07068 26.6175C3.48966 29.9854 4.65364 33.0578 6.55002 35.8647C6.75503 36.168 6.9482 36.5095 7.02799 36.8605C7.18622 37.5549 6.81134 38.1751 6.16407 38.4362C5.56241 38.6792 4.84127 38.4818 4.45894 37.9371C2.39344 34.9949 0.994481 31.7679 0.384622 28.2179C0.231918 27.3301 0.176945 26.4255 0.0740612 25.5288C0.0584091 25.3932 0.0250052 25.2596 0 25.1251V22.5936C0.028441 22.4905 0.0765426 22.3886 0.0820781 22.2842C0.196415 20.1277 0.645745 18.0379 1.37586 16.0115C3.29019 10.6988 6.66474 6.5546 11.4463 3.56333C14.219 1.82881 17.2353 0.735458 20.4758 0.272957C21.1804 0.172364 21.8876 0.0904768 22.5938 0H25.4062C25.5093 0.0278684 25.6112 0.0746338 25.7155 0.0803602C27.8894 0.19966 29.994 0.656625 32.0378 1.3938C36.7622 3.09854 40.5846 6.00125 43.5184 10.0761C45.7767 13.2127 47.1827 16.6934 47.7313 20.5191C47.8303 21.2094 47.9109 21.9021 48 22.5936V25.4064C47.971 25.5419 47.9355 25.6765 47.914 25.8132C47.7028 27.1469 47.5984 28.5076 47.2665 29.8104C45.6852 36.0195 42.1448 40.8457 36.7649 44.3058C33.9311 46.1283 30.8268 47.2678 27.4828 47.732C26.7916 47.8279 26.0985 47.9109 25.4062 48H23.6251Z" fill="var(--fill-0, #231916)"/>
</svg>
