<svg preserveAspectRatio="none" width="100%" height="100%" overflow="visible" style="display: block;" viewBox="0 0 9 19" fill="none" xmlns="http://www.w3.org/2000/svg">
<path id="Fill 25" fill-rule="evenodd" clip-rule="evenodd" d="M5.03053 9.93861C5.03053 10.9142 4.73964 11.9536 4.15887 13.0581C3.52812 11.6309 3.21624 10.3509 3.22474 9.21789L3.24873 7.18469C3.25597 6.55093 2.66371 6.03389 1.92999 6.03389C2.81515 5.50459 3.39567 4.62169 3.39567 3.62158V3.22624H5.03053V9.93861ZM7.10972 3.22624H8.31799V1.23627H3.39917V0.0209918C3.39917 0.0209918 3.39692 0.0264896 3.39567 0.0292385V0H1.23976V3.62158C1.23976 4.2131 0.684482 4.69241 0 4.69241V6.55493C0.435329 6.55493 0.849917 6.48171 1.23277 6.35276V9.78817C1.23277 10.6558 1.36097 11.5057 1.61887 12.3374C1.82603 13.0406 2.22038 13.8686 2.8014 14.8219C2.23687 15.2598 1.79705 15.5647 1.48167 15.7361C1.17454 15.9015 0.680483 16.0987 0 16.3281V18.2536C0.962623 18.0172 1.66385 17.7983 2.10418 17.5974C2.60223 17.3822 3.29521 16.9589 4.18361 16.3281C4.77288 16.8014 5.28368 17.1495 5.71526 17.3717C6.30503 17.6871 7.17194 17.9807 8.31799 18.2536V16.3281C7.49631 16.056 6.9023 15.8081 6.53719 15.5859C6.28004 15.4212 5.94392 15.1666 5.52883 14.8219C6.58292 13.1513 7.10972 11.563 7.10972 10.0568V3.22624Z" fill="var(--fill-0, #4A4C48)"/>
</svg>
