<svg preserveAspectRatio="none" width="100%" height="100%" overflow="visible" style="display: block;" viewBox="0 0 37 45" fill="none" xmlns="http://www.w3.org/2000/svg">
<path id="Fill 1" fill-rule="evenodd" clip-rule="evenodd" d="M2.15263 22.5062C2.15263 28.1277 2.15174 33.7492 2.15317 39.3707C2.1537 41.4986 3.50094 42.8542 5.62726 42.8549C14.0246 42.8576 22.4217 42.858 30.8188 42.8548C32.9203 42.8539 34.2798 41.4964 34.2804 39.4078C34.2822 31.4273 34.2775 23.4468 34.2832 15.4661C34.2848 13.2975 33.5215 11.4566 31.9912 9.92686C30.1693 8.10563 28.3422 6.28923 26.5285 4.45942C24.9753 2.89306 23.0999 2.12632 20.9018 2.12632C15.8167 2.12668 10.7315 2.12472 5.64638 2.1274C3.48772 2.12829 2.15334 3.47357 2.15299 5.64152C2.15209 11.263 2.15263 16.8845 2.15263 22.5062M0.015236 22.4919C0.015236 16.8706 0.011304 11.2491 0.017202 5.62776C0.0197042 3.04909 1.348 1.08077 3.64536 0.305813C4.18904 0.12244 4.78724 0.020923 5.36095 0.0187782C10.6632 -0.00213281 15.9659 -0.00803079 21.2682 0.0137739C23.7303 0.02414 25.8922 0.896684 27.6614 2.60174C29.7448 4.60956 31.7918 6.65759 33.8007 8.74011C35.5735 10.578 36.4156 12.8254 36.4165 15.3798C36.4196 23.4105 36.4324 31.4411 36.411 39.4716C36.4022 42.7425 34.0909 44.9761 30.8049 44.9764C22.4247 44.9773 14.044 44.9332 5.66443 44.9998C2.68023 45.0234 -0.0321266 42.7522 0.000580405 39.3558C0.0547346 33.7351 0.015236 28.1132 0.015236 22.4919" fill="var(--fill-0, #231916)"/>
</svg>
