<svg width="51" height="53" viewBox="0 0 51 53" fill="none" xmlns="http://www.w3.org/2000/svg">
<circle cx="25.3839" cy="24.8883" r="10.5133" stroke="#7DA84C" stroke-width="2"/>
<path fill-rule="evenodd" clip-rule="evenodd" d="M25.3839 28.2204L21.4669 30.2797L22.215 25.918L19.046 22.829L23.4254 22.1927L25.3839 18.2242L27.3425 22.1927L31.7219 22.829L28.5529 25.918L29.301 30.2797L25.3839 28.2204Z" stroke="#7DA84C" stroke-width="2" stroke-linejoin="round"/>
<path d="M32.8825 10.4119C34.5941 9.91968 36.3147 11.1613 36.3868 12.9409L36.3949 13.1561C36.4731 15.0873 37.685 16.7902 39.484 17.4969C41.1592 18.1548 41.8253 20.1727 40.8707 21.6985L40.6971 21.9768C39.6686 23.6204 39.655 25.704 40.6626 27.3605C41.6568 28.9952 40.9627 31.1317 39.1975 31.8697C37.4088 32.6176 36.1953 34.3104 36.0612 36.2445L36.0381 36.5717C35.9136 38.3673 34.1887 39.6082 32.4466 39.1557C30.5758 38.6701 28.5944 39.3354 27.396 40.8519L27.2629 41.0212C26.1586 42.4185 24.0368 42.4117 22.9414 41.0074C21.7496 39.4792 19.7477 38.8288 17.8852 39.3645C16.1736 39.8567 14.4539 38.6154 14.3819 36.8359L14.3728 36.6204C14.2946 34.6891 13.0828 32.9862 11.2837 32.2795C9.60842 31.6216 8.94229 29.6038 9.89701 28.078L10.0706 27.7996C11.099 26.1561 11.1123 24.0733 10.1048 22.4169C9.11049 20.7823 9.80481 18.6458 11.5699 17.9077C13.3588 17.1599 14.5724 15.4662 14.7065 13.5319L14.7296 13.2047C14.8542 11.4092 16.5791 10.1683 18.3211 10.6207C20.1919 11.1064 22.1733 10.441 23.3717 8.92457L23.5057 8.75556C24.61 7.35825 26.7309 7.36487 27.8263 8.76908C29.0181 10.2972 31.02 10.9477 32.8825 10.4119Z" stroke="#7DA84C" stroke-width="2"/>
<path d="M24.1694 41.5226C23.3067 43.8928 22.098 47.1092 20.5433 51.1718L16.7888 46.9582L11.2446 47.7874L14.7919 38.041" stroke="#7DA84C" stroke-width="2" stroke-linejoin="round"/>
<path d="M26.5625 41.5226C27.4252 43.8928 28.6339 47.1092 30.1886 51.1718L33.9431 46.9582L39.4874 47.7874L35.94 38.041" stroke="#7DA84C" stroke-width="2" stroke-linejoin="round"/>
<path d="M32.8825 10.4119C34.5941 9.91968 36.3147 11.1613 36.3868 12.9409L36.3949 13.1561C36.4731 15.0873 37.685 16.7902 39.484 17.4969C41.1592 18.1548 41.8253 20.1727 40.8707 21.6985L40.6971 21.9768C39.6686 23.6204 39.655 25.704 40.6626 27.3605C41.6568 28.9952 40.9627 31.1317 39.1975 31.8697C37.4088 32.6176 36.1953 34.3104 36.0612 36.2445L36.0381 36.5717C35.9136 38.3673 34.1887 39.6082 32.4466 39.1557C30.5758 38.6701 28.5944 39.3354 27.396 40.8519L27.2629 41.0212C26.1586 42.4185 24.0368 42.4117 22.9414 41.0074C21.7496 39.4792 19.7477 38.8288 17.8852 39.3645C16.1736 39.8567 14.4539 38.6154 14.3819 36.8359L14.3728 36.6204C14.2946 34.6891 13.0828 32.9862 11.2837 32.2795C9.60842 31.6216 8.94229 29.6038 9.89701 28.078L10.0706 27.7996C11.099 26.1561 11.1123 24.0733 10.1048 22.4169C9.11049 20.7823 9.80481 18.6458 11.5699 17.9077C13.3588 17.1599 14.5724 15.4662 14.7065 13.5319L14.7296 13.2047C14.8542 11.4092 16.5791 10.1683 18.3211 10.6207C20.1919 11.1064 22.1733 10.441 23.3717 8.92457L23.5057 8.75556C24.61 7.35825 26.7309 7.36487 27.8263 8.76908C29.0181 10.2972 31.02 10.9477 32.8825 10.4119Z" stroke="#7DA84C" stroke-width="2"/>
</svg>
