<svg width="43" height="42" viewBox="0 0 43 42" fill="none" xmlns="http://www.w3.org/2000/svg">
<mask id="mask0_0_551" style="mask-type:luminance" maskUnits="userSpaceOnUse" x="0" y="0" width="41" height="42">
<path fill-rule="evenodd" clip-rule="evenodd" d="M0.0234375 0.819824H40.9805V41.8198H0.0234375V0.819824Z" fill="white"/>
</mask>
<g mask="url(#mask0_0_551)">
<path fill-rule="evenodd" clip-rule="evenodd" d="M7.51226 41.8198C7.05799 41.7656 6.60355 41.7149 6.15001 41.6562C5.83336 41.6149 5.61473 41.4446 5.51563 41.1354C5.41255 40.8135 5.50441 40.5406 5.73625 40.3084C6.54224 39.5004 7.34914 38.6935 8.15604 37.8862C8.84395 37.1978 9.53312 36.5106 10.2205 35.8212C10.6617 35.3789 10.6608 34.9943 10.2167 34.55C9.24378 33.5765 8.26997 32.6041 7.29525 31.6329C6.80319 31.1426 6.44839 31.1408 5.94909 31.6388C4.53964 33.0447 3.13254 34.4532 1.72779 35.8637C1.43827 36.1545 1.15996 36.4544 0.687795 36.3057C0.212191 36.156 0.155589 35.7466 0.0982634 35.3426C-0.398137 31.843 1.61622 28.4548 4.92573 27.2392C6.48709 26.6656 8.07665 26.6155 9.66965 27.0873C10.1129 27.2188 10.4292 27.1367 10.7523 26.8128C15.8413 21.7128 20.9364 16.6193 26.0353 11.5293C26.3373 11.2278 26.423 10.9256 26.3001 10.5054C25.045 6.21952 27.6041 1.92372 31.9695 0.978656C32.9084 0.775575 33.8549 0.772682 34.8031 0.938872C35.1391 0.997825 35.3978 1.13978 35.5052 1.47705C35.6112 1.80979 35.5056 2.08484 35.2613 2.32789C33.8104 3.77224 32.3626 5.21967 30.9168 6.66908C30.7838 6.80254 30.6398 6.94088 30.5573 7.10527C30.4011 7.41649 30.4662 7.72011 30.712 7.96696C31.7615 9.02161 32.8108 10.0766 33.8701 11.1213C34.2126 11.4591 34.6208 11.4206 34.994 11.0479C36.4188 9.62452 37.842 8.1997 39.2658 6.77542C39.3132 6.72786 39.3614 6.6812 39.407 6.63201C39.6586 6.36148 39.9459 6.19493 40.3313 6.31012C40.7257 6.42767 40.851 6.74431 40.8973 7.104C41.2787 10.0659 40.3568 12.5286 37.9665 14.3429C35.9982 15.8365 33.7679 16.1992 31.3872 15.5325C30.94 15.4072 30.6011 15.4602 30.2644 15.7978C25.1848 20.8907 20.0995 25.9784 15.0076 31.0594C14.6816 31.3849 14.6035 31.7059 14.7279 32.1445C15.8315 36.0366 13.8891 39.9006 10.1123 41.335C9.27905 41.6516 8.41012 41.7992 7.51226 41.8198" fill="#231916"/>
</g>
<mask id="mask1_0_551" style="mask-type:luminance" maskUnits="userSpaceOnUse" x="21" y="20" width="22" height="22">
<path fill-rule="evenodd" clip-rule="evenodd" d="M21.5979 20.7495H42.6884V41.789H21.5979V20.7495Z" fill="white"/>
</mask>
<g mask="url(#mask1_0_551)">
<path fill-rule="evenodd" clip-rule="evenodd" d="M36.8679 41.7883C36.4415 41.8013 36.0827 41.6485 35.7819 41.349C32.4131 37.9965 29.0432 34.645 25.6753 31.2915C25.1946 30.813 25.1812 30.466 25.5758 29.9054C25.6415 29.8121 25.6916 29.6045 25.6406 29.5486C25.2523 29.124 24.9123 28.609 24.302 28.4864C24.0313 28.4323 23.7184 28.4542 23.4542 28.5361C23.1394 28.6336 22.9186 28.5795 22.7014 28.3547C22.4296 28.0732 22.1442 27.8052 21.8672 27.5287C21.5084 27.1708 21.5082 26.9558 21.8661 26.5977C23.2578 25.2062 24.6526 23.8173 26.0413 22.4225C26.5064 21.9552 26.9533 21.4697 27.4153 20.9991C27.7448 20.6635 27.9567 20.668 28.2951 21.0024C28.5895 21.293 28.8763 21.5916 29.1741 21.8786C29.3736 22.0706 29.4369 22.2815 29.3367 22.5451C29.0877 23.2007 29.2714 23.7477 29.7669 24.2134C29.8485 24.2899 29.9262 24.3705 30.0056 24.4492C30.4158 24.857 30.4158 24.857 30.9142 24.5521C31.2825 24.3269 31.7171 24.4 32.0688 24.7495C33.6312 26.3028 35.1933 27.8562 36.755 29.4101C38.5784 31.2243 40.4036 33.0364 42.2229 34.8546C42.707 35.3383 42.8229 36.0004 42.5265 36.5791C42.4315 36.7646 42.2937 36.9359 42.1465 37.0852C40.7658 38.4876 39.3774 39.8826 37.9943 41.2827C37.6817 41.5991 37.3247 41.8013 36.8679 41.7883" fill="#231916"/>
</g>
<path fill-rule="evenodd" clip-rule="evenodd" d="M19.0522 16.0598C18.2608 16.8557 17.4988 17.6222 16.713 18.4123C16.3255 18.0338 15.9258 17.6472 15.5302 17.2568C13.4616 15.2142 11.3984 13.1662 9.31983 11.134C9.10463 10.9238 8.81908 10.7542 8.53535 10.6518C7.73731 10.3641 6.92535 10.114 6.11447 9.86339C5.63706 9.716 5.30956 9.43625 5.0893 8.97656C4.39416 7.52642 3.67244 6.08858 2.96012 4.64657C2.64636 4.01165 2.70242 3.55341 3.16663 3.01361C3.34892 2.80203 3.53084 2.58936 3.72162 2.38538C4.12869 1.9501 4.65348 1.8284 5.18714 2.07741C6.76675 2.81378 8.33986 3.56408 9.91641 4.30678C10.3059 4.49015 10.5441 4.7898 10.6651 5.20066C10.9555 6.18623 11.2655 7.16619 11.5456 8.15465C11.653 8.53423 11.8403 8.84274 12.117 9.11852C14.3665 11.3607 16.6103 13.6078 18.8556 15.854C18.9259 15.9244 18.9932 15.9978 19.0522 16.0598" fill="#231916"/>
</svg>
