<svg width="51" height="36" viewBox="0 0 51 36" fill="none" xmlns="http://www.w3.org/2000/svg">
<mask id="mask0_0_519" style="mask-type:luminance" maskUnits="userSpaceOnUse" x="0" y="0" width="51" height="36">
<path fill-rule="evenodd" clip-rule="evenodd" d="M0.365479 0.724121H50.9909V35.4707H0.365479V0.724121Z" fill="white"/>
</mask>
<g mask="url(#mask0_0_519)">
<path fill-rule="evenodd" clip-rule="evenodd" d="M25.9567 3.35597H18.1122C15.6221 3.35597 13.1317 3.34409 10.6418 3.36097C9.28641 3.37014 8.84919 3.87071 8.98194 5.19778C9.03425 5.72315 9.07906 6.25435 9.19451 6.76784C11.0305 14.9347 12.8667 23.1014 14.7329 31.2611C15.0325 32.5726 15.4468 32.8262 16.7579 32.8264C26.5946 32.8272 36.4311 32.8272 46.2675 32.8245C46.5774 32.8245 46.8962 32.8325 47.1953 32.7668C48.1037 32.5674 48.3929 32.096 48.2079 31.1601C47.3903 27.0221 46.5769 22.8834 45.7469 18.748C44.8316 14.1882 43.9078 9.62996 42.9704 5.07482C42.6755 3.64189 42.2811 3.35576 40.8048 3.35597C35.8556 3.35617 30.9061 3.35597 25.9567 3.35597M0.365356 33.2292V31.9213C0.415997 31.8467 0.496646 31.778 0.512693 31.6963C1.33961 27.5029 2.14069 23.3043 2.98845 19.1151C3.9527 14.3504 4.97155 9.59662 5.94018 4.83287C6.37594 2.69035 7.53483 1.25449 9.70612 0.724121H42.2108C44.1189 1.27033 45.1513 2.63283 45.53 4.48568C46.8772 11.0798 48.1735 17.6845 49.5028 24.2823C49.9788 26.646 50.4938 29.0019 50.991 31.3612V32.1083C50.6128 33.9716 49.3278 34.9285 47.6283 35.4708H2.42057C1.2996 35.1232 0.631688 34.3604 0.365356 33.2292" fill="#231916"/>
</g>
<path fill-rule="evenodd" clip-rule="evenodd" d="M26.5103 19.1397C28.4632 16.7264 30.3331 14.4093 32.2108 12.0986C32.8841 11.27 33.6925 10.7867 34.8099 11.157C36.5065 11.7197 37.1302 13.5642 36.0024 14.9444C33.5258 17.9754 31.0083 20.9729 28.4765 23.9576C27.5246 25.0796 26.1239 25.17 25.0077 24.1995C23.4606 22.8541 21.9416 21.4752 20.4439 20.075C19.494 19.1872 19.4821 17.7811 20.3449 16.8102C21.2293 15.8149 22.5478 15.6849 23.58 16.5191C24.0871 16.9288 24.5568 17.3843 25.0426 17.8201C25.5029 18.2327 25.9622 18.6468 26.5103 19.1397" fill="#231916"/>
</svg>
