<svg width="15" height="15" viewBox="0 0 15 15" fill="none" xmlns="http://www.w3.org/2000/svg">
<path fill-rule="evenodd" clip-rule="evenodd" d="M7.01353 0.471191H8.0586V11.9627C8.51482 12.067 8.94726 12.1369 9.35917 12.2702C9.62147 12.3551 9.87769 12.5038 10.0931 12.6779C10.4018 12.9274 10.3874 13.2473 10.0938 13.516C9.75855 13.8227 9.33751 13.9481 8.90703 14.0399C7.84741 14.2659 6.79063 14.2587 5.75659 13.9193C5.47149 13.8256 5.1947 13.6605 4.95999 13.4713C4.69388 13.2569 4.71182 12.9517 4.95551 12.7067C5.30419 12.3561 5.76097 12.2275 6.22374 12.1241C6.47407 12.0681 6.7306 12.0394 7.01353 11.9936V0.471191Z" fill="#7DA84C"/>
<path fill-rule="evenodd" clip-rule="evenodd" d="M6.80879 6.40221C6.66804 6.40221 6.56593 6.40226 6.46387 6.40221C5.10693 6.40211 3.74994 6.40577 2.3931 6.39587C2.26071 6.39489 2.10749 6.33888 2.00063 6.2593C1.53333 5.91103 1.07959 5.5446 0.604858 5.17214C0.654472 5.11995 0.688458 5.07338 0.732347 5.0397C1.16082 4.71005 1.58634 4.37627 2.0241 4.05925C2.12642 3.98519 2.27134 3.93434 2.39702 3.93362C3.77969 3.92531 5.16237 3.93274 6.54504 3.92531C6.74025 3.92423 6.81709 3.9641 6.81348 4.1772C6.8012 4.90541 6.80879 5.63393 6.80879 6.40221" fill="#7DA84C"/>
<mask id="mask0_0_23" style="mask-type:luminance" maskUnits="userSpaceOnUse" x="8" y="2" width="7" height="4">
<path fill-rule="evenodd" clip-rule="evenodd" d="M8.29752 2.57446H14.5054V5.04824H8.29752V2.57446Z" fill="white"/>
</mask>
<g mask="url(#mask0_0_23)">
<path fill-rule="evenodd" clip-rule="evenodd" d="M14.5055 3.79223C13.9735 4.20497 13.467 4.60032 12.9563 4.99006C12.9067 5.02787 12.8304 5.0471 12.7664 5.04721C11.299 5.04937 9.8315 5.04772 8.36405 5.04602C8.34816 5.04602 8.33238 5.0356 8.29752 5.02343V2.5751H8.55961C9.93274 2.57515 11.3059 2.57149 12.679 2.58114C12.8117 2.58201 12.9643 2.63673 13.0729 2.71487C13.5456 3.05525 14.0054 3.41353 14.5055 3.79223" fill="#7DA84C"/>
</g>
<path fill-rule="evenodd" clip-rule="evenodd" d="M12.4639 7.20504C12.1186 7.60725 11.7873 7.99874 11.4471 8.38245C11.4034 8.4318 11.3142 8.46471 11.2459 8.46502C10.2929 8.4693 9.33996 8.46667 8.38694 8.4646C8.36271 8.46455 8.33841 8.45207 8.29669 8.44057V5.98239H8.7643C9.56276 5.98244 10.3613 5.97615 11.1596 5.98951C11.2774 5.99147 11.4232 6.05784 11.5054 6.1432C11.8316 6.48193 12.1377 6.84 12.4639 7.20504" fill="#7DA84C"/>
</svg>
