<svg width="37" height="46" viewBox="0 0 37 46" fill="none" xmlns="http://www.w3.org/2000/svg">
<mask id="mask0_0_80" style="mask-type:luminance" maskUnits="userSpaceOnUse" x="0" y="0" width="37" height="46">
<path fill-rule="evenodd" clip-rule="evenodd" d="M0 0.55127H36.4227V45.5513H0V0.55127Z" fill="white"/>
</mask>
<g mask="url(#mask0_0_80)">
<path fill-rule="evenodd" clip-rule="evenodd" d="M2.15232 23.0575C2.15232 28.6789 2.15143 34.3004 2.15286 39.9219C2.1534 42.0499 3.50064 43.4055 5.62695 43.4062C14.0243 43.4089 22.4214 43.4093 30.8185 43.406C32.92 43.4051 34.2795 42.0477 34.2801 39.9591C34.2819 31.9786 34.2772 23.9981 34.2829 16.0174C34.2845 13.8487 33.5212 12.0078 31.9909 10.4781C30.169 8.6569 28.3419 6.8405 26.5282 5.01069C24.975 3.44433 23.0996 2.67759 20.9015 2.67759C15.8163 2.67795 10.7312 2.67599 5.64608 2.67867C3.48741 2.67956 2.15304 4.02484 2.15268 6.19279C2.15179 11.8143 2.15232 17.4358 2.15232 23.0575M0.0149308 23.0432C0.0149308 17.4218 0.0109988 11.8003 0.0168968 6.17903C0.019399 3.60036 1.3477 1.63204 3.64505 0.857083C4.18874 0.673709 4.78694 0.572192 5.36065 0.570048C10.6629 0.549137 15.9656 0.543239 21.2679 0.565043C23.73 0.57541 25.8919 1.44795 27.6611 3.15301C29.7445 5.16082 31.7915 7.20886 33.8004 9.29138C35.5732 11.1292 36.4153 13.3767 36.4162 15.9311C36.4193 23.9618 36.4321 31.9924 36.4107 40.0229C36.4019 43.2938 34.0906 45.5273 30.8046 45.5277C22.4244 45.5286 14.0437 45.4845 5.66413 45.5511C2.67993 45.5747 -0.0324318 43.3035 0.00027523 39.9071C0.0544295 34.2863 0.0149308 28.6645 0.0149308 23.0432" fill="#231916"/>
</g>
<path fill-rule="evenodd" clip-rule="evenodd" d="M27.8265 30.5891C26.4725 30.5891 25.174 30.5825 23.8761 30.6036C23.7869 30.605 23.6259 30.814 23.625 30.9275C23.6089 32.7978 23.6157 34.6686 23.6107 36.5393C23.61 36.817 23.7281 36.9266 24.0012 36.9239C24.9361 36.915 25.8718 36.9357 26.806 36.9064C27.4167 36.8871 27.8117 36.4975 27.8192 35.8835C27.8403 34.1478 27.8265 32.4114 27.8265 30.5891V30.5891ZM8.60641 30.5889C8.60641 32.413 8.59283 34.1497 8.61374 35.8859C8.62107 36.4985 9.01641 36.8878 9.62837 36.9068C10.5626 36.9357 11.4984 36.915 12.4333 36.9239C12.7073 36.9266 12.8231 36.8145 12.8224 36.5379C12.8174 34.6671 12.8242 32.7964 12.8081 30.9258C12.807 30.8127 12.6451 30.6049 12.5554 30.6034C11.2575 30.5823 9.9592 30.5889 8.60641 30.5889V30.5889ZM27.8244 28.3493C27.8244 26.5208 27.8406 24.7692 27.8154 23.0181C27.8067 22.4151 27.3936 22.0424 26.7724 22.0254C25.8546 22.0004 24.9354 22.0222 24.0173 22.0108C23.7119 22.0068 23.6025 22.1377 23.6093 22.4311C23.6204 22.9153 23.6107 23.3998 23.6107 23.8844C23.6107 25.2207 23.6091 26.5569 23.6134 27.8932C23.6141 28.1004 23.5644 28.3513 23.9103 28.3506C25.1935 28.3472 26.4764 28.3493 27.8244 28.3493V28.3493ZM8.6032 28.35C9.95276 28.35 11.2208 28.3452 12.4889 28.3536C12.7697 28.3556 12.822 28.2083 12.8219 27.9772C12.8195 26.1231 12.817 24.2688 12.8242 22.4147C12.8251 22.1057 12.6887 22.0079 12.3994 22.011C11.5143 22.0201 10.6287 22.0008 9.74401 22.0199C8.99425 22.0362 8.61481 22.4311 8.60624 23.1836C8.59516 24.1525 8.6032 25.1213 8.6032 26.0902C8.60302 26.8216 8.6032 27.5527 8.6032 28.35V28.35ZM21.3773 30.6154H15.0517C15.0427 30.7895 15.0286 30.936 15.0284 31.0828C15.027 32.8541 15.0406 34.6257 15.0179 36.3967C15.0125 36.8188 15.1423 36.9364 15.5542 36.9318C17.3251 36.9127 19.0961 36.9246 20.8673 36.9221C21.029 36.922 21.1907 36.8994 21.3773 36.8855V30.6154ZM15.0665 28.3037H21.382V22.0699H15.0665V28.3037ZM18.1753 39.1026C15.4164 39.1026 12.6578 39.104 9.89897 39.1022C7.78731 39.1008 6.45919 37.7757 6.45758 35.6601C6.45401 31.5296 6.45383 27.3988 6.45758 23.2683C6.45937 21.1545 7.78767 19.8346 9.90558 19.8341C15.4567 19.8328 21.0076 19.8325 26.5585 19.8342C28.6378 19.8351 29.9727 21.1656 29.975 23.2499C29.9802 27.3972 29.9804 31.5446 29.975 35.6918C29.9725 37.7707 28.6322 39.1005 26.5517 39.1021C23.7596 39.1044 20.9673 39.1026 18.1753 39.1026V39.1026Z" fill="#231916"/>
</svg>
